<?xml version="1.0" encoding="iso-8859-1"?>
<!-- Generator: Adobe Illustrator 26.0.0, SVG Export Plug-In . SVG Version: 6.00 Build 0)  -->
<svg version="1.1" xmlns="http://www.w3.org/2000/svg" xmlns:xlink="http://www.w3.org/1999/xlink" x="0px" y="0px"
	 viewBox="0 0 2160 1080" style="enable-background:new 0 0 2160 1080;" xml:space="preserve">
<g id="Capa_1">
</g>
<g id="Capa_3">
</g>
<g id="Capa_2">
	<rect x="1.806" y="0.032" style="fill:#FFFFFF;" width="2160" height="1080"/>
	<g>
		<g>
			<path style="fill:#276955;" d="M833.796,342.64c0-85.808,0-171.616,0-257.425c164.713,0,329.426,0,494.139,0
				c0,85.808,0,171.616,0,257.425c-1.021-0.16-2.05-0.083-3.075-0.083c-72.444-0.004-144.889-0.002-217.333-0.004
				c-90.931-0.002-181.861-0.008-272.792-0.013C834.416,342.54,834.103,342.556,833.796,342.64z"/>
			<path style="fill:#276955;" d="M1144.662,609.094c-103.622,0-207.244,0-310.866,0c0-85.912,0-171.825,0-257.737
				c1.263-0.003,2.526-0.008,3.79-0.008c101.224,0,202.448,0,303.672,0c0.632,0,1.263-0.003,1.895,0.002
				c0.315,0.002,0.631,0.019,0.946,0.029c0.311,0.01,0.618,0.284,0.657,0.549c0.129,0.865,0.065,1.733,0.065,2.6
				c0.004,83.836,0.004,167.671,0.003,251.507c0,0.789,0,1.579-0.022,2.368C1144.795,608.635,1144.71,608.864,1144.662,609.094z"/>
		</g>
		<g>
			<path style="fill:#02C77C;" d="M377.895,684.664c12.438,0,24.644-0.131,36.839,0.172c1.467,0.036,3.424,2.157,4.228,3.77
				c10.136,20.325,20.098,40.736,30.117,61.119c0.625,1.272,1.345,2.497,2.351,4.352c6.665-13.607,13.022-26.553,19.348-39.514
				c4.402-9.021,8.677-18.106,13.231-27.05c0.649-1.275,2.537-2.705,3.875-2.728c12.043-0.211,24.092-0.123,36.481-0.123
				c0,46.033,0,91.769,0,137.875c-13.242,0-26.513,0-40.16,0c0-22.043,0-43.904,0-65.766c-0.334-0.109-0.669-0.218-1.003-0.328
				c-2.839,5.766-5.689,11.526-8.512,17.299c-3.687,7.539-7.209,15.164-11.147,22.569c-0.779,1.466-3.115,2.112-4.743,3.119
				c-0.119,0.074-0.325,0.012-0.49,0.01c-5.93-0.098-13.008,1.75-17.458-0.859c-4.21-2.467-5.744-9.572-8.308-14.71
				c-4.511-9.042-8.91-18.14-14.33-26.968c0,21.798,0,43.596,0,65.695c-13.625,0-26.782,0-40.316,0
				C377.895,776.826,377.895,731.106,377.895,684.664z"/>
			<path style="fill:#02C77C;" d="M1689.369,822.595c-13.611,0-26.768,0-40.303,0c0-22.149,0-43.994,0-65.838
				c-0.308-0.092-0.617-0.185-0.925-0.277c-2.845,5.788-5.704,11.57-8.533,17.366c-3.609,7.394-7.302,14.75-10.732,22.225
				c-1.223,2.665-2.844,3.576-5.72,3.431c-4.617-0.232-9.269-0.276-13.88,0.012c-3.144,0.196-4.696-1.02-6.002-3.75
				c-6.245-13.048-12.679-26.006-19.793-38.912c0,21.721,0,43.442,0,65.606c-13.804,0-27.072,0-40.669,0
				c0-45.697,0-91.425,0-137.798c9.692,0,19.427,0.584,29.055-0.182c7.948-0.632,11.661,2.17,14.944,9.445
				c9.052,20.06,19.237,39.611,29.322,60.068c0.809-1.256,1.347-1.932,1.716-2.689c10.316-21.153,20.584-42.329,30.992-63.436
				c0.659-1.336,2.374-3.039,3.627-3.062c12.197-0.23,24.401-0.138,36.903-0.138
				C1689.369,730.784,1689.369,776.529,1689.369,822.595z"/>
			<path style="fill:#01C77C;" d="M1078.114,822.895c-11.153,0-21.877,0.13-32.59-0.147c-1.512-0.039-3.367-1.778-4.398-3.208
				c-15.321-21.261-30.53-42.603-45.768-63.924c-0.915-1.28-1.856-2.541-3.478-4.758c0,24.535,0,47.848,0,71.602
				c-13.619,0-26.884,0-40.48,0c0-45.689,0-91.406,0-137.769c10.976,0,21.982-0.116,32.979,0.153
				c1.309,0.032,2.824,1.976,3.808,3.344c15.202,21.145,30.329,42.344,45.485,63.522c1,1.398,2.09,2.732,3.855,5.029
				c0-24.616,0-48.068,0-71.797c13.711,0,27,0,40.588,0C1078.114,730.784,1078.114,776.517,1078.114,822.895z"/>
			<path style="fill:#01C77C;" d="M1896.774,822.894c-11.185,0-21.91,0.13-32.624-0.148c-1.509-0.039-3.356-1.794-4.388-3.226
				c-15.32-21.262-30.529-42.603-45.767-63.924c-0.91-1.273-1.847-2.527-3.579-4.892c0,13.009,0,24.637,0,36.265
				c0,11.691,0,23.383,0,35.503c-13.515,0-26.785,0-40.375,0c0-45.715,0-91.434,0-137.78c11.007,0,22.016-0.116,33.014,0.154
				c1.305,0.032,2.812,1.991,3.798,3.362c14.724,20.474,29.377,40.999,44.047,61.512c1.436,2.008,2.872,4.016,5.081,7.105
				c0-24.652,0-48.14,0-71.892c13.925,0,27.214,0,40.794,0C1896.774,730.804,1896.774,776.539,1896.774,822.894z"/>
			<path style="fill:#02C77C;" d="M682.107,757.177c-0.961,6.65-1.693,15.873-3.708,24.808
				c-4.566,20.243-17.453,33.312-37.17,39.298c-20.429,6.203-41.136,6.132-61.542-0.083c-19.987-6.087-32.395-19.773-37.112-40.039
				c-4.014-17.246-4.018-34.63-0.315-51.961c5.398-25.263,21.239-39.707,46.458-44.423c15.133-2.83,30.264-2.77,45.324,0.218
				c26.618,5.281,42.81,22.963,46.246,50.383C681.086,741.74,681.372,748.165,682.107,757.177z M640.917,754.625
				c-0.268-0.053-0.536-0.107-0.804-0.16c-0.189-3.453-0.23-6.922-0.593-10.357c-1.696-16.043-8.347-24.096-22.108-26.199
				c-4.193-0.641-8.629-0.652-12.834-0.079c-12.124,1.652-18.742,7.577-21.343,18.872c-2.621,11.383-2.772,22.853-0.15,34.278
				c2.451,10.678,8.828,17.814,19.901,19.265c5.781,0.757,11.893,0.363,17.677-0.589c8.11-1.335,13.855-6.473,16.128-14.345
				C638.735,768.579,639.584,761.533,640.917,754.625z"/>
			<path style="fill:#02C77C;" d="M1235.813,757.177c-0.961,6.65-1.693,15.873-3.708,24.809
				c-4.566,20.243-17.453,33.312-37.17,39.298c-20.429,6.203-41.136,6.132-61.542-0.083c-19.987-6.087-32.395-19.773-37.112-40.039
				c-4.014-17.246-4.019-34.63-0.316-51.962c5.398-25.263,21.239-39.707,46.458-44.423c15.133-2.83,30.264-2.77,45.324,0.218
				c26.618,5.281,42.81,22.962,46.246,50.383C1234.792,741.74,1235.078,748.165,1235.813,757.177z M1194.57,754.817
				c-0.247-0.049-0.494-0.099-0.74-0.148c-0.203-3.617-0.229-7.255-0.64-10.848c-1.833-16.046-8.545-24.06-22.36-25.935
				c-4.664-0.633-9.571-0.269-14.277,0.337c-10.291,1.325-16.737,7.431-19.275,17.338c-3.159,12.332-3.304,24.784-0.016,37.125
				c2.622,9.843,9.058,16.202,19.229,17.512c5.788,0.745,11.887,0.415,17.676-0.499c8.337-1.316,14.128-6.602,16.444-14.652
				C1192.505,768.467,1193.292,761.572,1194.57,754.817z"/>
			<path style="fill:#02C77C;" d="M1398.764,822.905c0-46.316,0-91.92,0-137.875c1.319-0.127,2.572-0.352,3.826-0.353
				c20.985-0.022,41.974-0.2,62.955,0.095c6.383,0.09,12.877,0.95,19.098,2.404c23.202,5.425,36.582,20.438,41.17,43.471
				c3.055,15.34,3.245,30.777,0.125,46.112c-5.15,25.31-21.008,40.467-46.553,44.564c-6.003,0.963-12.138,1.452-18.219,1.513
				c-18.836,0.19-37.674,0.07-56.511,0.07C1402.858,822.905,1401.063,822.905,1398.764,822.905z M1439.475,791.519
				c7.776,0,15.064,0.496,22.259-0.108c13.115-1.1,20.248-6.914,22.863-18.853c2.849-13.004,2.786-26.174-0.597-39.12
				c-1.819-6.961-5.738-12.524-12.884-15.212c-10.347-3.892-21.024-2.432-31.641-2.712
				C1439.475,741.208,1439.475,766.208,1439.475,791.519z"/>
			<path style="fill:#02C77D;" d="M736.721,782.627c0,13.638,0,26.612,0,39.929c-13.621,0-26.913,0-40.439,0
				c0-45.904,0-91.631,0-137.267c0.488-0.248,0.767-0.514,1.046-0.515c25.612-0.04,51.233-0.474,76.835,0.037
				c24.67,0.493,41.129,17.226,43.319,42.024c1.857,21.024-5.687,36.918-23.516,47.036c7.348,16.064,14.663,32.058,22.429,49.035
				c-10.242,0-19.388-0.937-28.255,0.234c-11.433,1.509-17.565-2.442-20.61-13.446c-1.866-6.742-5.629-12.947-8.337-19.477
				c-2.153-5.191-5.795-7.773-11.458-7.608C744.29,782.708,740.842,782.627,736.721,782.627z M737.03,715.665
				c0,12.02,0,23.607,0,35.563c7.995,0,15.715,0.219,23.418-0.055c9.693-0.346,15.359-6.643,15.584-16.768
				c0.261-11.692-4.589-18.069-14.933-18.651C753.233,715.31,745.322,715.665,737.03,715.665z"/>
			<path style="fill:#03C77D;" d="M929.99,738.027c0,10.575,0,20.571,0,31.191c-18.54,0-37.104,0-55.983,0
				c0,7.766,0,14.916,0,22.476c21.202,0,42.29,0,63.776,0c0,10.351,0,20.311,0,30.745c-34.569,0-69.309,0-104.424,0
				c0-45.603,0-91.313,0-137.402c34.624,0,69.393,0,104.494,0c0,9.907,0,19.864,0,30.358c-21.234,0-42.449,0-63.913,0
				c0,7.702,0,14.875,0,22.633C892.601,738.027,911.173,738.027,929.99,738.027z"/>
			<path style="fill:#02C77D;" d="M1383.545,822.904c-13.551,0-26.597,0.082-39.639-0.131c-1.262-0.021-3.087-1.625-3.642-2.922
				c-3.168-7.408-6.107-14.917-8.954-22.455c-0.964-2.553-2.071-3.892-5.208-3.827c-11.404,0.233-22.819,0.224-34.224,0.005
				c-3.109-0.06-4.275,1.2-5.232,3.822c-2.707,7.414-5.526,14.795-8.603,22.062c-0.61,1.44-2.55,3.272-3.908,3.297
				c-12.561,0.238-25.13,0.124-37.696,0.084c-0.437-0.001-0.874-0.298-1.816-0.641c2.222-5.896,4.37-11.693,6.587-17.463
				c14.872-38.696,29.78-77.378,44.596-116.096c1.062-2.775,2.3-4.138,5.614-4.072c11.901,0.235,23.811-0.02,35.711,0.225
				c1.607,0.033,4.089,1.51,4.633,2.91c17.208,44.316,34.226,88.706,51.265,133.087
				C1383.196,821.226,1383.256,821.704,1383.545,822.904z M1293.939,763.768c10.291,0,19.874,0,30.086,0
				c-5.031-13.163-9.858-25.793-15.069-39.428C1303.717,738.095,1298.887,750.777,1293.939,763.768z"/>
			<path style="fill:#01C77C;" d="M262.774,684.857c34.572,0,68.907,0,103.619,0c0,9.726,0,19.493,0,29.759
				c-20.908,0-41.799,0-62.987,0c0,7.989,0,15.49,0,23.511c18.199,0,36.449,0,54.979,0c0,10.467,0,20.419,0,30.805
				c-18.268,0-36.371,0-54.99,0c0,17.951,0,35.486,0,53.493c-13.756,0-27.006,0-40.621,0
				C262.774,776.819,262.774,731.111,262.774,684.857z"/>
			<path style="fill:#02C77D;" d="M1749.567,822.573c-13.379,0-26.678,0-40.177,0c0-45.868,0-91.502,0-137.526
				c13.287,0,26.57,0,40.177,0C1749.567,730.758,1749.567,776.498,1749.567,822.573z"/>
		</g>
		<g>
			<path d="M1155.293,950.633c-3.856,7.585-1.486,11.717,6.526,11.826c4.734,0.064,9.476-0.136,14.203,0.056
				c8.531,0.347,14.398,6.999,11.844,13.959c-1.1,2.996-3.634,6.014-6.334,7.783c-8.101,5.306-17.231,6.847-26.808,5.228
				c-4.805-0.812-8.924-2.876-10.129-8.046c-1.199-5.146,1.188-9.146,4.973-12.457c0.669-0.585,1.371-1.133,2.285-1.885
				c-6.165-6.25-4.296-12.543-0.036-18.827c-6.903-7.777-5.096-15.518-1.493-19.723c5.458-6.369,14.618-7.596,23.699-3.482
				c2.971-1.818,5.519-3.746,8.372-4.967c1.43-0.612,3.88-0.539,5.016,0.33c1.099,0.84,1.819,3.301,1.426,4.69
				c-0.645,2.279-2.769,2.495-5.066,1.718c-1.911-0.646-3.983-0.824-6.21-0.683c4.781,7.316,5.637,14.232,0.15,20.855
				C1172.835,952.896,1164.358,954.073,1155.293,950.633z M1163.63,967.064c-0.051,0.244-0.101,0.488-0.152,0.732
				c-2.426,0-4.868-0.163-7.271,0.075c-1.062,0.105-2.43,0.768-2.995,1.616c-3.591,5.382-1.765,12.503,4.131,15.17
				c7.685,3.478,15.05,1.597,21.787-2.668c5.411-3.426,5.163-9.367-0.766-11.782C1173.787,968.344,1168.565,968.054,1163.63,967.064
				z M1155.585,938.177c0.176,0.998,0.339,3.178,0.969,5.214c1.152,3.723,3.891,5.415,7.798,5.445c3.88,0.03,7.285-1.45,7.799-5.252
				c0.553-4.093,0.326-8.584-0.882-12.496c-0.618-2.002-3.95-4.001-6.355-4.466C1158.613,925.401,1155.152,929.552,1155.585,938.177
				z"/>
			<path d="M1329.34,961.356c-2.168,1.472-3.9,2.726-5.707,3.86c-8.113,5.09-17.339,2.719-21.942-5.605
				c-6.826-12.346-2.296-28.968,9.458-34.976c4.702-2.404,9.679-2.325,14.629-1.632c2.822,0.395,3.743-0.319,3.613-3.069
				c-0.205-4.324-0.197-8.658-0.334-12.985c-0.082-2.568-1.387-3.836-4.056-4.119c-1.104-0.117-2.097-1.269-3.909-2.452
				c6.34-1.433,11.245-2.541,16.621-3.755c-0.15,3.051-0.384,5.678-0.39,8.305c-0.035,16.193-0.038,32.385-0.006,48.578
				c0.011,5.412,0.65,6.101,5.878,7.61c0.665,0.192,1.144,1.019,1.71,1.552c-0.483,0.475-0.882,1.172-1.462,1.388
				c-3.44,1.279-6.888,2.568-10.419,3.547c-0.707,0.196-2.204-0.725-2.599-1.502C1329.775,964.822,1329.729,963.24,1329.34,961.356z
				 M1329.362,944.545c0-2.924,0-5.849,0-8.773c0-0.254,0.006-0.509-0.009-0.763c-0.28-4.61-3.567-8.035-8.204-8.55
				c-5.594-0.622-9.804,1.678-11.806,6.981c-2.744,7.269-2.777,14.691,0.027,21.962c2.171,5.628,6.371,8.458,10.547,7.536
				c5.868-1.295,9.441-5.653,9.445-11.526C1329.365,949.122,1329.364,946.834,1329.362,944.545z"/>
			<path d="M354.23,966.572c0.969-0.757,1.846-1.984,2.923-2.194c7.022-1.37,7.383-1.696,7.388-8.902
				c0.009-12.74,0.007-25.479-0.004-38.219c-0.001-1.4,0.01-2.811-0.157-4.197c-0.548-4.568-1.793-5.587-6.448-5.688
				c-7.026-0.153-12.985,1.335-15.496,9.01c-0.266,0.813-1.971,1.159-3.902,2.206c0.895-5.619,1.475-9.879,2.337-14.082
				c0.151-0.735,1.484-1.754,2.276-1.759c17.508-0.101,35.017-0.077,52.722-0.077c0.503,4.913,0.967,9.442,1.449,14.145
				c-2.229,1.342-3.378,0.721-4.365-1.75c-2.33-5.833-10.007-9.525-15.817-7.317c-1.55,0.589-3.011,3.097-3.306,4.918
				c-0.564,3.483-0.313,7.106-0.308,10.67c0.015,10.828,0.065,21.655,0.12,32.482c0.035,6.873,0.572,7.396,7.437,8.374
				c0.88,0.125,1.638,1.104,2.453,1.687c-0.74,0.648-1.471,1.848-2.221,1.859c-8.798,0.131-17.598,0.084-26.397,0.084
				C354.686,967.406,354.458,966.989,354.23,966.572z"/>
			<path d="M985.632,967.943c-6.385,0-12.771,0.049-19.154-0.072c-0.681-0.013-1.343-1.027-2.014-1.577
				c0.599-0.658,1.165-1.849,1.802-1.888c4.448-0.268,5.394-2.945,5.338-6.763c-0.114-7.894-0.063-15.791-0.036-23.686
				c0.009-2.731-1.184-4.224-3.959-4.699c-0.882-0.151-1.615-1.16-2.417-1.777c0.898-0.622,1.714-1.498,2.71-1.814
				c2.429-0.771,5.008-1.095,7.403-1.945c2.776-0.985,3.795-0.054,3.889,2.666c0.059,1.72,0.324,3.433,0.557,5.75
				c1.579-1.505,2.672-2.54,3.756-3.582c4.474-4.296,9.94-5.641,15.92-4.993c4.667,0.505,7.757,3.832,8.082,9.238
				c0.481,8.004,0.557,16.037,0.644,24.059c0.042,3.878,0.407,7.173,5.38,7.634c0.742,0.069,1.341,1.668,2.389,3.072
				c-1.705,0.221-2.326,0.369-2.948,0.371c-6.259,0.017-12.519,0.01-19.679-0.823c0.764-0.971,1.408-2.631,2.313-2.786
				c3.001-0.515,4.218-2.196,4.23-4.963c0.034-7.774,0.228-15.557-0.081-23.319c-0.231-5.802-4.252-8.221-9.893-6.52
				c-7.252,2.186-9.984,5.796-9.981,13.197c0.002,5.355-0.042,10.71,0.037,16.063c0.04,2.72,0.712,4.972,4.092,5.499
				c0.967,0.151,1.723,1.648,2.575,2.528C986.269,967.19,985.951,967.567,985.632,967.943z"/>
			<path d="M1534.873,967.789c-8.17,0-15.047,0-22.064,0c-1.041-2.171-0.474-3.425,1.944-3.578c3.401-0.215,4.645-2.158,4.644-5.307
				c-0.005-8.151-0.007-16.302,0.063-24.452c0.026-2.997-1.077-4.799-4.262-5.271c-0.795-0.118-1.434-1.284-2.145-1.969
				c0.73-0.51,1.392-1.252,2.202-1.487c2.695-0.78,5.497-1.219,8.157-2.091c2.683-0.88,3.502,0.203,3.617,2.638
				c0.083,1.753,0.324,3.498,0.428,4.559c4.295-2.324,8.334-5.406,12.892-6.787c9.07-2.748,14.492,1.15,15.178,10.547
				c0.546,7.485,0.431,15.022,0.485,22.537c0.027,3.756,0.47,6.908,5.26,7.339c0.795,0.072,1.456,1.62,2.729,3.143
				c-2.214,0.18-3.214,0.328-4.214,0.332c-5.992,0.022-11.984,0.011-17.976,0.011c-0.252-0.37-0.505-0.74-0.757-1.11
				c0.882-0.898,1.656-2.402,2.667-2.582c3.112-0.553,3.962-2.501,3.974-5.164c0.035-7.519,0.199-15.045-0.047-22.556
				c-0.205-6.272-4.243-8.849-10.195-6.951c-7.081,2.259-9.721,5.794-9.72,13.018c0.001,5.227-0.021,10.454,0.014,15.681
				c0.02,3.008,0.597,5.534,4.377,6.069C1532.97,964.48,1533.598,966.133,1534.873,967.789z"/>
			<path d="M1703.243,967.95c-6.259,0-12.52,0.061-18.776-0.076c-0.794-0.017-1.566-1.065-2.348-1.636
				c0.744-0.668,1.444-1.848,2.241-1.917c3.828-0.331,4.896-2.567,4.874-5.969c-0.052-8.023-0.028-16.046,0.019-24.069
				c0.016-2.82-1.01-4.572-4.038-5.042c-0.861-0.134-1.578-1.185-2.36-1.815c0.789-0.588,1.495-1.443,2.382-1.713
				c2.561-0.78,5.261-1.132,7.781-2.012c2.853-0.996,3.752,0.102,3.839,2.742c0.053,1.634,0.274,3.263,0.501,5.808
				c1.449-1.399,2.401-2.273,3.302-3.197c3.783-3.877,8.434-5.607,13.803-5.606c6.569,0.001,10.265,2.927,10.706,9.41
				c0.536,7.871,0.552,15.781,0.65,23.676c0.048,3.936,0.173,7.518,5.432,7.966c0.719,0.061,1.313,1.572,1.965,2.412
				c-0.175,0.342-0.35,0.684-0.525,1.026c-6.592,0-13.186,0.039-19.776-0.068c-0.575-0.009-1.558-0.957-1.588-1.509
				c-0.034-0.633,0.745-1.85,1.24-1.886c4.952-0.363,5.055-3.869,5.049-7.453c-0.011-6.755,0.102-13.517-0.141-20.265
				c-0.235-6.51-4.354-9.384-10.345-7.048c-6.063,2.364-10.415,4.842-9.674,13.079c0.478,5.312,0.053,10.702,0.129,16.055
				c0.039,2.744,0.782,4.943,4.142,5.46c0.95,0.146,1.683,1.687,2.516,2.588C1703.908,967.242,1703.575,967.596,1703.243,967.95z"/>
			<path d="M811.856,967.944c-6.384,0-12.769,0.05-19.151-0.073c-0.681-0.013-1.343-1.034-2.013-1.587
				c0.602-0.673,1.147-1.861,1.815-1.935c3.692-0.407,4.541-2.731,4.527-5.885c-0.032-7.137,0.152-14.279-0.065-21.409
				c-0.216-7.086-4.489-9.681-11.165-7.107c-6.709,2.587-8.771,5.531-8.77,12.529c0.001,5.355-0.035,10.71,0.024,16.064
				c0.031,2.863,0.659,5.25,4.239,5.782c0.915,0.136,1.611,1.729,3.08,3.433c-8.368,0-15.355,0-22.291,0
				c-1.224-2.599,0.077-3.44,2.216-3.596c2.998-0.219,4.339-1.89,4.353-4.743c0.04-8.405,0.022-16.811,0.085-25.215
				c0.021-2.87-1.137-4.507-4.112-4.984c-0.839-0.134-1.523-1.223-2.279-1.874c0.815-0.564,1.555-1.373,2.458-1.647
				c2.563-0.775,5.245-1.174,7.781-2.018c2.519-0.838,3.623-0.148,3.729,2.463c0.071,1.758,0.306,3.51,0.468,5.264
				c0.44,0.356,0.88,0.711,1.321,1.067c0.883-1.338,1.565-2.879,2.685-3.978c4.422-4.341,9.95-5.61,15.923-4.914
				c4.517,0.526,7.597,3.813,7.922,8.975c0.495,7.875,0.559,15.781,0.675,23.676c0.059,4.008-0.052,7.859,5.51,8.289
				c0.683,0.053,1.247,1.628,1.866,2.497C812.409,967.327,812.133,967.636,811.856,967.944z"/>
			<path d="M427.301,923.534c4.578,0,9.156,0,14.195,0c0,1.295,0.008,2.519-0.001,3.744c-0.073,9.037-0.203,18.075-0.197,27.112
				c0.003,3.685,1.289,6.463,5.653,6.727c0.695,0.042,1.329,1.072,1.991,1.646c-0.638,0.461-1.214,1.096-1.926,1.351
				c-2.985,1.069-6.129,1.774-8.987,3.099c-2.382,1.103-3.556,1.037-3.85-1.798c-0.117-1.125-0.494-2.222-0.878-3.87
				c-1.307,0.881-2.329,1.776-3.512,2.327c-2.979,1.388-5.927,3.309-9.075,3.787c-9.205,1.398-14.663-3.464-14.891-12.848
				c-0.163-6.745,0.018-13.498-0.067-20.246c-0.045-3.519-0.188-7.04-5.071-7.556c-0.693-0.073-1.221-1.684-2.309-3.302
				c5.86,0,10.72,0,15.606,0c0,8.521,0,16.885,0,25.25c0,1.019-0.016,2.038,0.003,3.056c0.081,4.275,0.138,8.606,5.064,10.527
				c3.621,1.412,9.965-0.87,12.947-4.665c0.675-0.859,1.332-2.035,1.336-3.068c0.033-7.506-0.051-15.013-0.214-22.518
				c-0.062-2.846-1.348-4.722-4.504-5.24c-0.903-0.148-1.576-1.68-2.355-2.578C426.606,924.159,426.954,923.847,427.301,923.534z"/>
			<path d="M1246.64,962.579c-4.492,3.621-9.113,5.916-14.709,5.235c-4.178-0.508-8.162-1.456-9.963-5.896
				c-1.898-4.679-1.1-9.739,2.966-12.837c3.473-2.646,7.666-4.391,11.642-6.329c1.457-0.71,3.231-0.744,4.812-1.238
				c2.563-0.801,6.099-0.25,5.498-4.985c-0.8-6.297-2.959-9.756-7.402-10.051c-1.75-0.116-3.572,0.165-5.299,0.542
				c-2.678,0.585-3.993,2.252-3.099,5.052c0.718,2.248,0.444,4.309-1.895,5.053c-1.507,0.479-4.325,0.507-4.826-0.312
				c-0.902-1.475-1.226-4.063-0.521-5.611c2.371-5.205,7.231-7.459,12.548-8.352c11.191-1.88,17.924,3.521,18.43,14.767
				c0.298,6.613,0.049,13.25,0.17,19.873c0.093,5.088,0.679,5.445,5.63,4.56c0.629-0.112,1.748,0.418,2.018,0.959
				c0.277,0.554,0.056,1.752-0.405,2.213C1257.825,969.63,1249.604,968.381,1246.64,962.579z M1246.823,943.481
				c-4.705,1.646-8.804,2.671-12.509,4.491c-3.674,1.805-5.395,7.245-4.156,10.928c1.174,3.491,3.793,5.289,7.215,4.953
				c3.756-0.369,9.245-4.395,9.397-7.253C1246.982,952.577,1246.823,948.534,1246.823,943.481z"/>
			<path d="M1805.901,963.929c-5.059,1.346-9.792,3.229-14.67,3.736c-5.465,0.567-9.444-2.271-10.79-6.162
				c-1.76-5.089-0.805-10.278,3.994-13.191c5.02-3.046,10.714-5.289,16.4-6.848c4.024-1.103,5.091-2.583,4.448-6.509
				c-1.181-7.219-5.661-10.195-12.559-7.972c-2.635,0.85-3.542,2.309-3.164,5.165c0.207,1.561-0.437,3.897-1.567,4.777
				c-1.059,0.825-4.152,0.857-4.764,0.048c-1.014-1.341-1.529-3.956-0.895-5.471c2.281-5.458,7.271-7.755,12.72-8.657
				c11.208-1.855,17.877,3.55,18.379,14.826c0.289,6.486,0.058,12.994,0.152,19.491c0.076,5.276,0.654,5.67,5.69,4.859
				c0.627-0.101,1.733,0.48,1.994,1.035c0.262,0.556,0,1.739-0.472,2.197C1816.297,969.608,1808.28,968.377,1805.901,963.929z
				 M1805.069,943.636c-4.257,1.473-8.334,2.522-12.071,4.284c-3.364,1.586-5.33,6.703-4.474,10.159
				c0.756,3.051,2.46,5.3,5.83,5.764c2.969,0.408,10.213-2.987,10.556-5.683C1805.49,953.599,1805.069,948.912,1805.069,943.636z"/>
			<path d="M1677.116,963.77c-6.878,5.899-13.836,5.305-16.403,0.109c-4.999,1.354-9.722,3.262-14.594,3.785
				c-5.479,0.588-9.508-2.223-10.872-6.055c-1.847-5.19-0.813-10.464,4.182-13.462c5.036-3.023,10.75-5.221,16.445-6.759
				c3.976-1.074,4.757-2.647,4.191-6.322c-1.139-7.387-5.883-10.448-12.823-7.997c-2.479,0.876-3.597,2.391-2.784,4.949
				c0.71,2.234,0.505,4.311-1.834,5.085c-1.502,0.496-4.316,0.557-4.834-0.261c-0.921-1.454-1.266-4.036-0.582-5.593
				c2.243-5.106,6.991-7.304,12.135-8.336c11.176-2.241,18.336,3.305,18.859,14.647c0.305,6.613,0.055,13.249,0.172,19.873
				c0.09,5.104,0.774,5.507,5.592,4.682C1674.822,961.969,1675.899,963.097,1677.116,963.77z M1659.832,943.658
				c-4.208,1.447-8.277,2.489-12.014,4.237c-3.374,1.579-5.368,6.673-4.53,10.136c0.739,3.052,2.432,5.316,5.793,5.809
				c2.959,0.433,10.228-2.919,10.586-5.635C1660.269,953.645,1659.832,948.95,1659.832,943.658z"/>
			<path d="M1042.745,967.827c-12.297-0.017-20.764-8.988-20.73-21.964c0.037-14.014,8.694-23.22,21.797-23.18
				c12.343,0.037,20.461,9.022,20.465,22.648C1064.281,958.892,1055.711,967.845,1042.745,967.827z M1055.76,947.788
				c-0.511-6.052-0.98-12.022-4.916-17.034c-2.881-3.669-6.743-4.903-11.247-4.234c-4.232,0.629-6.282,3.662-7.453,7.35
				c-0.65,2.046-1.052,4.209-1.256,6.349c-0.618,6.49,0.291,12.753,3.818,18.36c2.488,3.955,6.119,6.144,10.994,5.46
				c4.713-0.661,7.568-3.588,8.749-8.001C1055.164,953.361,1055.341,950.542,1055.76,947.788z"/>
			<path d="M544.099,967.827c-12.305-0.015-20.784-8.977-20.756-21.937c0.03-14.021,8.681-23.243,21.771-23.206
				c12.357,0.034,20.48,9.002,20.491,22.622C565.616,958.872,557.049,967.843,544.099,967.827z M557.156,947.161
				c-0.571-5.98-1.21-11.798-5.168-16.612c-4.864-5.915-13.627-5.662-17.261,0.429c-4.353,7.296-3.255,22.138,2.117,28.763
				c2.704,3.335,6.145,4.96,10.456,4.268c4.355-0.7,7.174-3.424,8.334-7.504C556.491,953.489,556.673,950.282,557.156,947.161z"/>
			<path d="M661.682,967.827c-12.313-0.013-20.802-8.966-20.779-21.914c0.025-14.028,8.67-23.263,21.748-23.229
				c12.369,0.032,20.496,8.985,20.514,22.599C683.183,958.856,674.622,967.841,661.682,967.827z M674.648,947.776
				c-0.511-6.053-0.984-12.021-4.924-17.032c-2.884-3.668-6.75-4.896-11.251-4.223c-4.231,0.633-6.277,3.67-7.445,7.359
				c-0.648,2.047-1.052,4.21-1.254,6.349c-0.614,6.49,0.295,12.753,3.826,18.359c2.491,3.954,6.126,6.137,11,5.449
				c4.711-0.666,7.564-3.597,8.741-8.011C674.053,953.349,674.23,950.531,674.648,947.776z"/>
			<path d="M1117.914,967.827c-12.236-0.03-20.66-9.067-20.598-22.095c0.067-13.967,8.761-23.105,21.929-23.049
				c12.272,0.053,20.371,9.126,20.333,22.78C1139.54,958.994,1130.953,967.859,1117.914,967.827z M1131.062,947.578
				c-0.502-5.93-1.029-11.758-4.809-16.69c-2.939-3.835-6.927-5.11-11.562-4.333c-4.199,0.704-6.176,3.818-7.312,7.513
				c-0.594,1.933-0.956,3.966-1.164,5.98c-0.669,6.491,0.232,12.745,3.701,18.383c2.538,4.125,6.272,6.369,11.292,5.579
				c4.687-0.738,7.486-3.738,8.597-8.173C1130.478,953.147,1130.659,950.335,1131.062,947.578z"/>
			<path d="M1485.148,967.827c-12.215-0.034-20.625-9.095-20.551-22.141c0.079-13.957,8.781-23.065,21.976-23.002
				c12.247,0.058,20.34,9.164,20.286,22.826C1506.806,959.031,1498.214,967.863,1485.148,967.827z M1498.342,947.786
				c-0.511-6.052-0.98-12.022-4.917-17.034c-2.882-3.669-6.745-4.902-11.247-4.232c-4.232,0.629-6.281,3.663-7.452,7.351
				c-0.65,2.046-1.052,4.209-1.256,6.349c-0.617,6.49,0.291,12.753,3.819,18.36c2.489,3.955,6.12,6.143,10.995,5.458
				c4.713-0.662,7.568-3.59,8.748-8.003C1497.747,953.359,1497.923,950.54,1498.342,947.786z"/>
			<path d="M1574.172,928.666c-1.842,0-3.516,0.169-5.126-0.075c-0.749-0.114-1.375-1.03-2.057-1.583
				c0.642-0.666,1.203-1.771,1.943-1.906c1.602-0.293,3.295-0.09,5.543-0.09c0-2.07-0.001-3.921,0-5.772
				c0.004-5.356,1.305-10.329,4.465-14.73c4.291-5.976,11.66-8.867,18.609-6.614c2.421,0.785,4.725,2.923,6.3,5.025
				c1.644,2.195,0.295,4.476-2.009,5.68c-2.178,1.137-4.083,0.288-5.136-1.816c-1.587-3.17-3.05-6.59-7.503-5.472
				c-4.267,1.071-5.467,4.891-5.984,8.544c-0.687,4.852-0.716,9.796-1.051,15.075c4.197,0,7.73,0,11.212,0
				c0.437,3.532,0.284,3.685-3.731,3.742c-2.267,0.032-4.534,0.006-7.016,0.006c0,10.572-0.043,20.721,0.024,30.869
				c0.023,3.425,2.308,4.363,5.363,4.649c1.159,0.109,2.218,1.263,3.323,1.941c-1.183,0.563-2.353,1.578-3.551,1.613
				c-5.879,0.169-11.767,0.137-17.649,0.021c-1.062-0.021-2.109-0.764-3.163-1.174c0.878-0.825,1.67-2.221,2.651-2.369
				c3.17-0.48,4.491-2.35,4.514-5.204C1574.22,949.114,1574.172,939.204,1574.172,928.666z"/>
			<path d="M1386.24,957.824c-5.412,12.354-23.58,12.454-30.785,4.78c-10.364-11.039-6.138-32.327,7.707-38.478
				c12.107-5.379,23.276,1.634,23.695,14.763c0.082,2.581-1.084,2.966-3.209,2.946c-7.042-0.064-14.084-0.024-21.127-0.023
				c-1.254,0-2.507,0-4.882,0c1.299,4.826,1.85,9.305,3.681,13.186c4.252,9.013,13.617,10.75,21.405,4.513
				C1383.711,958.72,1385.059,958.376,1386.24,957.824z M1377.743,937.925c0.54-7.03-2.026-11.055-7.032-11.5
				c-6.183-0.549-11.007,4.225-11.526,11.5C1365.286,937.925,1371.38,937.925,1377.743,937.925z"/>
			<path d="M726.025,941.812c1.309,4.84,1.867,9.322,3.703,13.206c4.256,9.003,13.617,10.723,21.412,4.478
				c0.982-0.787,2.333-1.117,3.699-1.229c-5.17,10.828-22.824,12.95-30.989,4.307c-10.406-11.016-6.123-32.323,7.731-38.458
				c12.082-5.35,23.289,1.709,23.676,14.795c0.077,2.603-1.133,2.94-3.235,2.922c-7.042-0.06-14.084-0.022-21.127-0.022
				C729.644,941.812,728.391,941.812,726.025,941.812z M745.973,937.873c0.95-6.302-1.507-10.64-6.274-11.383
				c-6.257-0.975-11.105,3.462-12.262,11.383C733.647,937.873,739.829,937.873,745.973,937.873z"/>
			<path d="M888.193,941.812c1.248,4.755,1.766,9.128,3.52,12.937c4.257,9.244,13.682,11.076,21.607,4.69
				c0.946-0.763,2.177-1.176,3.692-1.098c-2.139,4.603-5.714,7.529-10.357,8.681c-13.151,3.263-24.618-2.414-26.105-17.308
				c-0.853-8.548,1-16.221,7.745-22.164c5.688-5.012,12.268-6.05,19.365-3.985c6.131,1.784,11.27,10.618,9.597,16.531
				c-0.228,0.806-2.074,1.618-3.188,1.642c-7.039,0.149-14.083,0.076-21.125,0.076C891.696,941.812,890.447,941.812,888.193,941.812
				z M908.292,937.901c0.465-7.304-2.262-11.289-7.519-11.503c-6.066-0.247-10.757,4.648-10.983,11.503
				C895.884,937.901,901.974,937.901,908.292,937.901z"/>
			<path d="M1068.644,967.635c-0.774-2.364-0.223-3.584,2.311-3.537c3.72,0.068,4.919-2.304,4.93-5.451
				c0.055-16.827,0.043-33.653,0.025-50.48c-0.003-2.757-1.022-4.598-4.226-4.785c-0.917-0.054-1.768-1.232-2.649-1.895
				c0.812-0.571,1.554-1.466,2.448-1.659c4.095-0.884,8.232-1.572,12.522-2.362c0,3.062,0,5.937,0,8.812
				c0,16.572,0,33.144,0.001,49.715c0,0.255-0.003,0.51,0.007,0.765c0.245,6.262,0.79,6.855,7.32,7.627
				c0.067,0.975,0.138,2.019,0.222,3.249C1083.677,967.635,1076.188,967.635,1068.644,967.635z"/>
			<path d="M1772.625,967.825c-10.627,0-20.732,0.041-30.836-0.024c-3.192-0.021-3.715-1.23-1.786-4.084
				c5.141-7.608,10.413-15.13,15.513-22.765c2.871-4.299,5.505-8.757,8.615-13.735c-4.974,0-9.175-0.304-13.31,0.089
				c-3.804,0.361-5.216,3.579-6.565,6.732c-0.491,1.146-1.805,1.942-2.743,2.898c-0.322-1.192-0.98-2.406-0.902-3.572
				c0.237-3.513,0.76-7.008,1.131-10.16c10.741,0,21.194,0,32.987,0c-8.09,14.554-16.755,27.458-25.99,40.583
				c5.56,0,10.906,0.841,15.759-0.335c2.652-0.643,4.432-4.734,6.683-7.199c0.901-0.986,2.012-1.782,3.027-2.665
				c0.292,1.312,1,2.693,0.794,3.923C1774.44,960.877,1773.494,964.181,1772.625,967.825z"/>
			<path d="M486.566,966.597c-0.305-4.794-0.586-9.214-0.866-13.609c3.347-1.444,3.601,0.767,4.2,2.729
				c2.054,6.729,5.2,9.068,11.265,8.329c3.235-0.394,6.071-1.725,6.883-5.14c0.849-3.57-0.353-6.595-3.772-8.357
				c-3.285-1.693-6.714-3.115-9.97-4.86c-5.866-3.143-8.347-8.481-6.838-14.286c1.182-4.549,6.725-8.709,12.381-8.627
				c4.176,0.06,8.361,0.798,12.49,1.523c0.799,0.14,1.833,1.564,1.937,2.487c0.226,2.001,0.092,4.089-0.239,6.085
				c-0.171,1.031-1.08,1.941-1.655,2.906c-0.747-0.801-1.832-1.478-2.185-2.424c-1.732-4.648-4.639-7.052-8.947-6.94
				c-3.07,0.08-5.492,1.333-6.452,4.42c-0.978,3.149-0.137,5.964,2.722,7.625c2.852,1.657,5.998,2.81,9.007,4.2
				c6.916,3.194,9.939,7.388,9.599,13.292c-0.391,6.781-6.186,11.735-14.508,11.793
				C496.699,967.777,491.774,967.021,486.566,966.597z"/>
			<path d="M570.342,946.08c-0.014-10.444,5.48-19.133,14.33-22.308c5.258-1.886,10.596-1.644,15.72,0.54
				c3.205,1.366,5.553,3.684,5.907,7.395c0.3,3.135-1.446,4.848-4.345,5.244c-2.794,0.382-4.249-1.093-4.472-3.925
				c-0.217-2.758-0.835-5.493-3.989-6.307c-3.229-0.834-6.437-0.548-8.956,1.931c-1.253,1.234-2.557,2.648-3.19,4.236
				c-3.116,7.819-3.301,15.719,0.756,23.255c4.331,8.044,12.756,9.291,19.609,3.179c0.57-0.508,0.986-1.25,1.629-1.596
				c0.757-0.407,1.683-0.499,2.536-0.727c-0.072,0.881,0.142,1.929-0.261,2.618c-3.823,6.537-11.815,9.648-20.037,7.916
				C576.056,965.524,570.357,957.504,570.342,946.08z"/>
			<path d="M923.792,946.064c-0.011-10.44,5.494-19.134,14.345-22.299c5.258-1.88,10.599-1.638,15.721,0.552
				c3.203,1.37,5.548,3.69,5.893,7.405c0.292,3.14-1.465,4.841-4.361,5.23c-2.8,0.376-4.238-1.118-4.459-3.942
				c-0.216-2.761-0.846-5.489-4.001-6.297c-3.231-0.827-6.438-0.538-8.953,1.946c-1.251,1.236-2.553,2.651-3.184,4.24
				c-3.108,7.821-3.293,15.721,0.769,23.254c4.331,8.031,12.768,9.27,19.615,3.155c0.569-0.508,0.983-1.255,1.627-1.598
				c0.756-0.403,1.685-0.485,2.539-0.707c-0.079,0.883,0.125,1.93-0.281,2.622c-3.839,6.535-11.828,9.636-20.044,7.898
				C929.493,965.511,923.804,957.491,923.792,946.064z"/>
			<path d="M1443.592,922.258c4.994,0.36,9.602,1.195,13.002,5.077c3.131,3.575,2.324,8.217-1.551,9.358
				c-2.753,0.81-4.858,0.201-5.314-3.057c-0.431-3.084-0.758-6.283-4.619-7.055c-4.309-0.861-7.766,0.552-10.38,4.124
				c-5.196,7.099-4.422,21.864,1.54,28.368c4.465,4.871,10.741,5.416,16.198,1.366c0.918-0.681,1.628-1.666,2.594-2.248
				c0.91-0.549,2.031-0.752,3.059-1.108c-0.209,0.998-0.144,2.178-0.67,2.968c-6.273,9.418-20.89,10.738-28.887,2.675
				c-11.072-11.163-6.79-32.952,7.678-38.674C1438.563,923.133,1441.135,922.84,1443.592,922.258z"/>
			<path d="M861.673,927.115c0,10.679-0.204,20.849,0.094,31.005c0.132,4.493,3.044,5.338,8.211,3.112
				c1.321-0.569,2.861-0.636,4.3-0.934c-0.914,1.351-1.545,3.133-2.806,3.959c-2.201,1.443-4.692,2.7-7.238,3.319
				c-6.183,1.504-10.099-1.128-10.668-7.486c-0.52-5.818-0.283-11.706-0.329-17.563c-0.039-4.951-0.008-9.903-0.008-15.119
				c-1.36-0.1-2.524,0.017-3.538-0.318c-0.979-0.323-1.803-1.113-2.695-1.697c0.927-0.647,1.777-1.508,2.805-1.874
				c0.885-0.315,1.974-0.065,3.428-0.065c0-2.53,0.313-4.839-0.069-7.027c-0.678-3.885,0.838-5.94,4.548-6.778
				c1.074-0.243,2.085-0.764,3.619-1.344c0,5.202,0,9.931,0,15.146c3.649,0,6.935-0.097,10.209,0.064
				c0.887,0.044,1.735,0.87,2.601,1.337c-0.843,0.754-1.637,2.084-2.537,2.16C868.432,927.278,865.229,927.115,861.673,927.115z"/>
			<path d="M1194.624,966.572c0.875-0.621,1.686-1.638,2.637-1.791c3.499-0.561,4.653-2.743,4.657-5.91
				c0.009-8.03,0.023-16.06-0.001-24.089c-0.008-2.805-0.879-4.957-4.122-5.503c-0.735-0.124-1.316-1.15-1.968-1.76
				c0.48-0.49,0.883-1.274,1.453-1.422c4.419-1.152,8.87-2.181,13.757-3.355c0,6.385-0.001,12.583,0,18.781
				c0.001,5.736,0.062,11.472-0.016,17.207c-0.047,3.412,1.109,5.594,4.823,6.098c0.881,0.12,1.621,1.27,2.426,1.946
				c-0.212,0.297-0.425,0.595-0.637,0.892c-7.392,0-14.785,0-22.177,0C1195.179,967.301,1194.902,966.937,1194.624,966.572z"/>
			<path d="M1622.884,923.468c0,3.939-0.006,7.723,0.001,11.506c0.016,7.638,0.063,15.276,0.048,22.913
				c-0.007,3.649,1.03,6.221,5.349,6.323c0.733,0.017,1.437,1.243,2.154,1.91c-0.816,0.568-1.621,1.61-2.45,1.628
				c-6.133,0.14-12.272,0.137-18.406,0.003c-0.826-0.018-1.63-1.023-2.444-1.571c0.773-0.679,1.51-1.892,2.326-1.946
				c4.053-0.272,5.113-2.694,5.106-6.195c-0.015-7.636-0.005-15.273,0.062-22.91c0.028-3.208-0.911-5.432-4.565-5.828
				c-0.709-0.077-1.386-1.14-1.873-1.881c-0.081-0.123,0.823-1.255,1.388-1.374C1613.925,925.125,1618.297,924.339,1622.884,923.468
				z"/>
			<path d="M626.306,923.461c0,10.211-0.006,19.993,0.005,29.775c0.002,1.908,0.078,3.817,0.113,5.725
				c0.057,3.161,1.465,4.933,4.821,5.218c0.924,0.078,1.757,1.219,2.632,1.873c-0.926,0.592-1.839,1.671-2.78,1.695
				c-6.004,0.156-12.016,0.14-18.022,0.009c-0.846-0.019-1.672-0.979-2.507-1.503c0.746-0.699,1.458-1.956,2.245-2.005
				c4.306-0.265,5.201-2.917,5.187-6.518c-0.029-7.509-0.002-15.018,0.056-22.527c0.024-3.16-0.798-5.482-4.495-5.884
				c-0.732-0.08-1.355-1.157-2.028-1.775c0.59-0.534,1.106-1.402,1.781-1.548C617.529,925.08,621.779,924.324,626.306,923.461z"/>
			<path d="M1202.081,916.712c1.324-3.418,2.64-6.84,3.974-10.254c2.612-6.684,3.579-7.25,11.339-6.424
				c-0.299,0.835-0.415,1.695-0.862,2.321c-3.393,4.745-6.773,9.504-10.357,14.104c-0.68,0.873-2.254,1.055-3.415,1.555
				C1202.534,917.581,1202.308,917.147,1202.081,916.712z"/>
			<path d="M1618.494,912.731c-2.684-0.006-5.044-2.437-4.99-5.139c0.052-2.592,2.58-4.881,5.36-4.789
				c3.156,0.104,4.448,2.192,4.724,4.917C1623.85,910.3,1621.2,912.737,1618.494,912.731z"/>
			<path d="M623.029,902.795c2.267,0.105,3.653,2.078,3.982,4.817c0.309,2.571-2.279,5.069-4.985,5.119
				c-2.677,0.049-5.101-2.338-5.109-5.032C616.908,905.119,619.403,902.793,623.029,902.795z"/>
		</g>
	</g>
</g>
<g id="Capa_4" style="display:none;">
	<rect x="2.065" y="-0.258" style="display:inline;fill:#FFFFFF;" width="2160" height="1080"/>
	<g style="display:inline;">
		<g>
			<path style="fill:#1D1D1B;" d="M833.796,342.64c0-85.808,0-171.616,0-257.425c164.713,0,329.426,0,494.139,0
				c0,85.808,0,171.616,0,257.425c-1.021-0.16-2.05-0.083-3.075-0.083c-72.444-0.004-144.889-0.002-217.333-0.004
				c-90.931-0.002-181.861-0.008-272.792-0.013C834.416,342.54,834.103,342.556,833.796,342.64z"/>
			<path style="fill:#1D1D1B;" d="M1144.662,609.094c-103.622,0-207.244,0-310.866,0c0-85.912,0-171.825,0-257.737
				c1.263-0.003,2.526-0.008,3.79-0.008c101.224,0,202.448,0,303.672,0c0.632,0,1.263-0.003,1.895,0.002
				c0.315,0.002,0.631,0.019,0.946,0.029c0.311,0.01,0.618,0.284,0.657,0.549c0.129,0.865,0.065,1.733,0.065,2.6
				c0.004,83.836,0.004,167.671,0.003,251.507c0,0.789,0,1.579-0.022,2.368C1144.795,608.635,1144.71,608.864,1144.662,609.094z"/>
		</g>
		<g>
			<path style="fill:#1D1D1B;" d="M377.895,684.664c12.438,0,24.644-0.131,36.839,0.172c1.467,0.036,3.424,2.157,4.228,3.77
				c10.136,20.325,20.098,40.736,30.117,61.119c0.625,1.272,1.345,2.497,2.351,4.352c6.665-13.607,13.022-26.553,19.348-39.514
				c4.402-9.021,8.677-18.106,13.231-27.05c0.649-1.275,2.537-2.705,3.875-2.728c12.043-0.211,24.092-0.123,36.481-0.123
				c0,46.033,0,91.769,0,137.875c-13.242,0-26.513,0-40.16,0c0-22.043,0-43.904,0-65.766c-0.334-0.109-0.669-0.218-1.003-0.328
				c-2.839,5.766-5.689,11.526-8.512,17.299c-3.687,7.539-7.209,15.164-11.147,22.569c-0.779,1.466-3.115,2.112-4.743,3.119
				c-0.119,0.074-0.325,0.012-0.49,0.01c-5.93-0.098-13.008,1.75-17.458-0.859c-4.21-2.467-5.744-9.572-8.308-14.71
				c-4.511-9.042-8.91-18.14-14.33-26.968c0,21.798,0,43.596,0,65.695c-13.625,0-26.782,0-40.316,0
				C377.895,776.826,377.895,731.106,377.895,684.664z"/>
			<path style="fill:#1D1D1B;" d="M1689.369,822.595c-13.611,0-26.768,0-40.303,0c0-22.149,0-43.994,0-65.838
				c-0.308-0.092-0.617-0.185-0.925-0.277c-2.845,5.788-5.704,11.57-8.533,17.366c-3.609,7.394-7.302,14.75-10.732,22.225
				c-1.223,2.665-2.844,3.576-5.72,3.431c-4.617-0.232-9.269-0.276-13.88,0.012c-3.144,0.196-4.696-1.02-6.002-3.75
				c-6.245-13.048-12.679-26.006-19.793-38.912c0,21.721,0,43.442,0,65.606c-13.804,0-27.072,0-40.669,0
				c0-45.697,0-91.425,0-137.798c9.692,0,19.427,0.584,29.055-0.182c7.948-0.632,11.661,2.17,14.944,9.445
				c9.052,20.06,19.237,39.611,29.322,60.068c0.809-1.256,1.347-1.932,1.716-2.689c10.316-21.153,20.584-42.329,30.992-63.436
				c0.659-1.336,2.374-3.039,3.627-3.062c12.197-0.23,24.401-0.138,36.903-0.138
				C1689.369,730.784,1689.369,776.529,1689.369,822.595z"/>
			<path style="fill:#1D1D1B;" d="M1078.114,822.895c-11.153,0-21.877,0.13-32.59-0.147c-1.512-0.039-3.367-1.778-4.398-3.208
				c-15.321-21.261-30.53-42.603-45.768-63.924c-0.915-1.28-1.856-2.541-3.478-4.758c0,24.535,0,47.848,0,71.602
				c-13.619,0-26.884,0-40.48,0c0-45.689,0-91.406,0-137.769c10.976,0,21.982-0.116,32.979,0.153
				c1.309,0.032,2.824,1.976,3.808,3.344c15.202,21.145,30.329,42.344,45.485,63.522c1,1.398,2.09,2.732,3.855,5.029
				c0-24.616,0-48.068,0-71.797c13.711,0,27,0,40.588,0C1078.114,730.784,1078.114,776.517,1078.114,822.895z"/>
			<path style="fill:#1D1D1B;" d="M1896.774,822.894c-11.185,0-21.91,0.13-32.624-0.148c-1.509-0.039-3.356-1.794-4.388-3.226
				c-15.32-21.262-30.529-42.603-45.767-63.924c-0.91-1.273-1.847-2.527-3.579-4.892c0,13.009,0,24.637,0,36.265
				c0,11.691,0,23.383,0,35.503c-13.515,0-26.785,0-40.375,0c0-45.715,0-91.434,0-137.78c11.007,0,22.016-0.116,33.014,0.154
				c1.305,0.032,2.812,1.991,3.798,3.362c14.724,20.474,29.377,40.999,44.047,61.512c1.436,2.008,2.872,4.016,5.081,7.105
				c0-24.652,0-48.14,0-71.892c13.925,0,27.214,0,40.794,0C1896.774,730.804,1896.774,776.539,1896.774,822.894z"/>
			<path style="fill:#1D1D1B;" d="M682.107,757.177c-0.961,6.65-1.693,15.873-3.708,24.808
				c-4.566,20.243-17.453,33.312-37.17,39.298c-20.429,6.203-41.136,6.132-61.542-0.083c-19.987-6.087-32.395-19.773-37.112-40.039
				c-4.014-17.246-4.018-34.63-0.315-51.961c5.398-25.263,21.239-39.707,46.458-44.423c15.133-2.83,30.264-2.77,45.324,0.218
				c26.618,5.281,42.81,22.963,46.246,50.383C681.086,741.74,681.372,748.165,682.107,757.177z M640.917,754.625
				c-0.268-0.053-0.536-0.107-0.804-0.16c-0.189-3.453-0.23-6.922-0.593-10.357c-1.696-16.043-8.347-24.096-22.108-26.199
				c-4.193-0.641-8.629-0.652-12.834-0.079c-12.124,1.652-18.742,7.577-21.343,18.872c-2.621,11.383-2.772,22.853-0.15,34.278
				c2.451,10.678,8.828,17.814,19.901,19.265c5.781,0.757,11.893,0.363,17.677-0.589c8.11-1.335,13.855-6.473,16.128-14.345
				C638.735,768.579,639.584,761.533,640.917,754.625z"/>
			<path style="fill:#1D1D1B;" d="M1235.813,757.177c-0.961,6.65-1.693,15.873-3.708,24.809
				c-4.566,20.243-17.453,33.312-37.17,39.298c-20.429,6.203-41.136,6.132-61.542-0.083c-19.987-6.087-32.395-19.773-37.112-40.039
				c-4.014-17.246-4.019-34.63-0.316-51.962c5.398-25.263,21.239-39.707,46.458-44.423c15.133-2.83,30.264-2.77,45.324,0.218
				c26.618,5.281,42.81,22.962,46.246,50.383C1234.792,741.74,1235.078,748.165,1235.813,757.177z M1194.57,754.817
				c-0.247-0.049-0.494-0.099-0.74-0.148c-0.203-3.617-0.229-7.255-0.64-10.848c-1.833-16.046-8.545-24.06-22.36-25.935
				c-4.664-0.633-9.571-0.269-14.277,0.337c-10.291,1.325-16.737,7.431-19.275,17.338c-3.159,12.332-3.304,24.784-0.016,37.125
				c2.622,9.843,9.058,16.202,19.229,17.512c5.788,0.745,11.887,0.415,17.676-0.499c8.337-1.316,14.128-6.602,16.444-14.652
				C1192.505,768.467,1193.292,761.572,1194.57,754.817z"/>
			<path style="fill:#1D1D1B;" d="M1398.764,822.905c0-46.316,0-91.92,0-137.875c1.319-0.127,2.572-0.352,3.826-0.353
				c20.985-0.022,41.974-0.2,62.955,0.095c6.383,0.09,12.877,0.95,19.098,2.404c23.202,5.425,36.582,20.438,41.17,43.471
				c3.055,15.34,3.245,30.777,0.125,46.112c-5.15,25.31-21.008,40.467-46.553,44.564c-6.003,0.963-12.138,1.452-18.219,1.513
				c-18.836,0.19-37.674,0.07-56.511,0.07C1402.858,822.905,1401.063,822.905,1398.764,822.905z M1439.475,791.519
				c7.776,0,15.064,0.496,22.259-0.108c13.115-1.1,20.248-6.914,22.863-18.853c2.849-13.004,2.786-26.174-0.597-39.12
				c-1.819-6.961-5.738-12.524-12.884-15.212c-10.347-3.892-21.024-2.432-31.641-2.712
				C1439.475,741.208,1439.475,766.208,1439.475,791.519z"/>
			<path style="fill:#1D1D1B;" d="M736.721,782.627c0,13.638,0,26.612,0,39.929c-13.621,0-26.913,0-40.439,0
				c0-45.904,0-91.631,0-137.267c0.488-0.248,0.767-0.514,1.046-0.515c25.612-0.04,51.233-0.474,76.835,0.037
				c24.67,0.493,41.129,17.226,43.319,42.024c1.857,21.024-5.687,36.918-23.516,47.036c7.348,16.064,14.663,32.058,22.429,49.035
				c-10.242,0-19.388-0.937-28.255,0.234c-11.433,1.509-17.565-2.442-20.61-13.446c-1.866-6.742-5.629-12.947-8.337-19.477
				c-2.153-5.191-5.795-7.773-11.458-7.608C744.29,782.708,740.842,782.627,736.721,782.627z M737.03,715.665
				c0,12.02,0,23.607,0,35.563c7.995,0,15.715,0.219,23.418-0.055c9.693-0.346,15.359-6.643,15.584-16.768
				c0.261-11.692-4.589-18.069-14.933-18.651C753.233,715.31,745.322,715.665,737.03,715.665z"/>
			<path style="fill:#1D1D1B;" d="M929.99,738.027c0,10.575,0,20.571,0,31.191c-18.54,0-37.104,0-55.983,0
				c0,7.766,0,14.916,0,22.476c21.202,0,42.29,0,63.776,0c0,10.351,0,20.311,0,30.745c-34.569,0-69.309,0-104.424,0
				c0-45.603,0-91.313,0-137.402c34.624,0,69.393,0,104.494,0c0,9.907,0,19.864,0,30.358c-21.234,0-42.449,0-63.913,0
				c0,7.702,0,14.875,0,22.633C892.601,738.027,911.173,738.027,929.99,738.027z"/>
			<path style="fill:#1D1D1B;" d="M1383.545,822.904c-13.551,0-26.597,0.082-39.639-0.131c-1.262-0.021-3.087-1.625-3.642-2.922
				c-3.168-7.408-6.107-14.917-8.954-22.455c-0.964-2.553-2.071-3.892-5.208-3.827c-11.404,0.233-22.819,0.224-34.224,0.005
				c-3.109-0.06-4.275,1.2-5.232,3.822c-2.707,7.414-5.526,14.795-8.603,22.062c-0.61,1.44-2.55,3.272-3.908,3.297
				c-12.561,0.238-25.13,0.124-37.696,0.084c-0.437-0.001-0.874-0.298-1.816-0.641c2.222-5.896,4.37-11.693,6.587-17.463
				c14.872-38.696,29.78-77.378,44.596-116.096c1.062-2.775,2.3-4.138,5.614-4.072c11.901,0.235,23.811-0.02,35.711,0.225
				c1.607,0.033,4.089,1.51,4.633,2.91c17.208,44.316,34.226,88.706,51.265,133.087
				C1383.196,821.226,1383.256,821.704,1383.545,822.904z M1293.939,763.768c10.291,0,19.874,0,30.086,0
				c-5.031-13.163-9.858-25.793-15.069-39.428C1303.717,738.095,1298.887,750.777,1293.939,763.768z"/>
			<path style="fill:#1D1D1B;" d="M262.774,684.857c34.572,0,68.907,0,103.619,0c0,9.726,0,19.493,0,29.759
				c-20.908,0-41.799,0-62.987,0c0,7.989,0,15.49,0,23.511c18.199,0,36.449,0,54.979,0c0,10.467,0,20.419,0,30.805
				c-18.268,0-36.371,0-54.99,0c0,17.951,0,35.486,0,53.493c-13.756,0-27.006,0-40.621,0
				C262.774,776.819,262.774,731.111,262.774,684.857z"/>
			<path style="fill:#1D1D1B;" d="M1749.567,822.573c-13.379,0-26.678,0-40.177,0c0-45.868,0-91.502,0-137.526
				c13.287,0,26.57,0,40.177,0C1749.567,730.758,1749.567,776.498,1749.567,822.573z"/>
		</g>
		<g>
			<path style="fill:#1D1D1B;" d="M1155.293,950.633c-3.856,7.585-1.486,11.717,6.526,11.826c4.734,0.064,9.476-0.136,14.203,0.056
				c8.531,0.347,14.398,6.999,11.844,13.959c-1.1,2.996-3.634,6.014-6.334,7.783c-8.101,5.306-17.231,6.847-26.808,5.228
				c-4.805-0.812-8.924-2.876-10.129-8.046c-1.199-5.146,1.188-9.146,4.973-12.457c0.669-0.585,1.371-1.133,2.285-1.885
				c-6.165-6.25-4.296-12.543-0.036-18.827c-6.903-7.777-5.096-15.518-1.493-19.723c5.458-6.369,14.618-7.596,23.699-3.482
				c2.971-1.818,5.519-3.746,8.372-4.967c1.43-0.612,3.88-0.539,5.016,0.33c1.099,0.84,1.819,3.301,1.426,4.69
				c-0.645,2.279-2.769,2.495-5.066,1.718c-1.911-0.646-3.983-0.824-6.21-0.683c4.781,7.316,5.637,14.232,0.15,20.855
				C1172.835,952.896,1164.358,954.073,1155.293,950.633z M1163.63,967.064c-0.051,0.244-0.101,0.488-0.152,0.732
				c-2.426,0-4.868-0.163-7.271,0.075c-1.062,0.105-2.43,0.768-2.995,1.616c-3.591,5.382-1.765,12.503,4.131,15.17
				c7.685,3.478,15.05,1.597,21.787-2.668c5.411-3.426,5.163-9.367-0.766-11.782C1173.787,968.344,1168.565,968.054,1163.63,967.064
				z M1155.585,938.177c0.176,0.998,0.339,3.178,0.969,5.214c1.152,3.723,3.891,5.415,7.798,5.445c3.88,0.03,7.285-1.45,7.799-5.252
				c0.553-4.093,0.326-8.584-0.882-12.496c-0.618-2.002-3.95-4.001-6.355-4.466C1158.613,925.401,1155.152,929.552,1155.585,938.177
				z"/>
			<path style="fill:#1D1D1B;" d="M1329.34,961.356c-2.168,1.472-3.9,2.726-5.707,3.86c-8.113,5.09-17.339,2.719-21.942-5.605
				c-6.826-12.346-2.296-28.968,9.458-34.976c4.702-2.404,9.679-2.325,14.629-1.632c2.822,0.395,3.743-0.319,3.613-3.069
				c-0.205-4.324-0.197-8.658-0.334-12.985c-0.082-2.568-1.387-3.836-4.056-4.119c-1.104-0.117-2.097-1.269-3.909-2.452
				c6.34-1.433,11.245-2.541,16.621-3.755c-0.15,3.051-0.384,5.678-0.39,8.305c-0.035,16.193-0.038,32.385-0.006,48.578
				c0.011,5.412,0.65,6.101,5.878,7.61c0.665,0.192,1.144,1.019,1.71,1.552c-0.483,0.475-0.882,1.172-1.462,1.388
				c-3.44,1.279-6.888,2.568-10.419,3.547c-0.707,0.196-2.204-0.725-2.599-1.502C1329.775,964.822,1329.729,963.24,1329.34,961.356z
				 M1329.362,944.545c0-2.924,0-5.849,0-8.773c0-0.254,0.006-0.509-0.009-0.763c-0.28-4.61-3.567-8.035-8.204-8.55
				c-5.594-0.622-9.804,1.678-11.806,6.981c-2.744,7.269-2.777,14.691,0.027,21.962c2.171,5.628,6.371,8.458,10.547,7.536
				c5.868-1.295,9.441-5.653,9.445-11.526C1329.365,949.122,1329.364,946.834,1329.362,944.545z"/>
			<path style="fill:#1D1D1B;" d="M354.23,966.572c0.969-0.757,1.846-1.984,2.923-2.194c7.022-1.37,7.383-1.696,7.388-8.902
				c0.009-12.74,0.007-25.479-0.004-38.219c-0.001-1.4,0.01-2.811-0.157-4.197c-0.548-4.568-1.793-5.587-6.448-5.688
				c-7.026-0.153-12.985,1.335-15.496,9.01c-0.266,0.813-1.971,1.159-3.902,2.206c0.895-5.619,1.475-9.879,2.337-14.082
				c0.151-0.735,1.484-1.754,2.276-1.759c17.508-0.101,35.017-0.077,52.722-0.077c0.503,4.913,0.967,9.442,1.449,14.145
				c-2.229,1.342-3.378,0.721-4.365-1.75c-2.33-5.833-10.007-9.525-15.817-7.317c-1.55,0.589-3.011,3.097-3.306,4.918
				c-0.564,3.483-0.313,7.106-0.308,10.67c0.015,10.828,0.065,21.655,0.12,32.482c0.035,6.873,0.572,7.396,7.437,8.374
				c0.88,0.125,1.638,1.104,2.453,1.687c-0.74,0.648-1.471,1.848-2.221,1.859c-8.798,0.131-17.598,0.084-26.397,0.084
				C354.686,967.406,354.458,966.989,354.23,966.572z"/>
			<path style="fill:#1D1D1B;" d="M985.632,967.943c-6.385,0-12.771,0.049-19.154-0.072c-0.681-0.013-1.343-1.027-2.014-1.577
				c0.599-0.658,1.165-1.849,1.802-1.888c4.448-0.268,5.394-2.945,5.338-6.763c-0.114-7.894-0.063-15.791-0.036-23.686
				c0.009-2.731-1.184-4.224-3.959-4.699c-0.882-0.151-1.615-1.16-2.417-1.777c0.898-0.622,1.714-1.498,2.71-1.814
				c2.429-0.771,5.008-1.095,7.403-1.945c2.776-0.985,3.795-0.054,3.889,2.666c0.059,1.72,0.324,3.433,0.557,5.75
				c1.579-1.505,2.672-2.54,3.756-3.582c4.474-4.296,9.94-5.641,15.92-4.993c4.667,0.505,7.757,3.832,8.082,9.238
				c0.481,8.004,0.557,16.037,0.644,24.059c0.042,3.878,0.407,7.173,5.38,7.634c0.742,0.069,1.341,1.668,2.389,3.072
				c-1.705,0.221-2.326,0.369-2.948,0.371c-6.259,0.017-12.519,0.01-19.679-0.823c0.764-0.971,1.408-2.631,2.313-2.786
				c3.001-0.515,4.218-2.196,4.23-4.963c0.034-7.774,0.228-15.557-0.081-23.319c-0.231-5.802-4.252-8.221-9.893-6.52
				c-7.252,2.186-9.984,5.796-9.981,13.197c0.002,5.355-0.042,10.71,0.037,16.063c0.04,2.72,0.712,4.972,4.092,5.499
				c0.967,0.151,1.723,1.648,2.575,2.528C986.269,967.19,985.951,967.567,985.632,967.943z"/>
			<path style="fill:#1D1D1B;" d="M1534.873,967.789c-8.17,0-15.047,0-22.064,0c-1.041-2.171-0.474-3.425,1.944-3.578
				c3.401-0.215,4.645-2.158,4.644-5.307c-0.005-8.151-0.007-16.302,0.063-24.452c0.026-2.997-1.077-4.799-4.262-5.271
				c-0.795-0.118-1.434-1.284-2.145-1.969c0.73-0.51,1.392-1.252,2.202-1.487c2.695-0.78,5.497-1.219,8.157-2.091
				c2.683-0.88,3.502,0.203,3.617,2.638c0.083,1.753,0.324,3.498,0.428,4.559c4.295-2.324,8.334-5.406,12.892-6.787
				c9.07-2.748,14.492,1.15,15.178,10.547c0.546,7.485,0.431,15.022,0.485,22.537c0.027,3.756,0.47,6.908,5.26,7.339
				c0.795,0.072,1.456,1.62,2.729,3.143c-2.214,0.18-3.214,0.328-4.214,0.332c-5.992,0.022-11.984,0.011-17.976,0.011
				c-0.252-0.37-0.505-0.74-0.757-1.11c0.882-0.898,1.656-2.402,2.667-2.582c3.112-0.553,3.962-2.501,3.974-5.164
				c0.035-7.519,0.199-15.045-0.047-22.556c-0.205-6.272-4.243-8.849-10.195-6.951c-7.081,2.259-9.721,5.794-9.72,13.018
				c0.001,5.227-0.021,10.454,0.014,15.681c0.02,3.008,0.597,5.534,4.377,6.069C1532.97,964.48,1533.598,966.133,1534.873,967.789z"
				/>
			<path style="fill:#1D1D1B;" d="M1703.243,967.95c-6.259,0-12.52,0.061-18.776-0.076c-0.794-0.017-1.566-1.065-2.348-1.636
				c0.744-0.668,1.444-1.848,2.241-1.917c3.828-0.331,4.896-2.567,4.874-5.969c-0.052-8.023-0.028-16.046,0.019-24.069
				c0.016-2.82-1.01-4.572-4.038-5.042c-0.861-0.134-1.578-1.185-2.36-1.815c0.789-0.588,1.495-1.443,2.382-1.713
				c2.561-0.78,5.261-1.132,7.781-2.012c2.853-0.996,3.752,0.102,3.839,2.742c0.053,1.634,0.274,3.263,0.501,5.808
				c1.449-1.399,2.401-2.273,3.302-3.197c3.783-3.877,8.434-5.607,13.803-5.606c6.569,0.001,10.265,2.927,10.706,9.41
				c0.536,7.871,0.552,15.781,0.65,23.676c0.048,3.936,0.173,7.518,5.432,7.966c0.719,0.061,1.313,1.572,1.965,2.412
				c-0.175,0.342-0.35,0.684-0.525,1.026c-6.592,0-13.186,0.039-19.776-0.068c-0.575-0.009-1.558-0.957-1.588-1.509
				c-0.034-0.633,0.745-1.85,1.24-1.886c4.952-0.363,5.055-3.869,5.049-7.453c-0.011-6.755,0.102-13.517-0.141-20.265
				c-0.235-6.51-4.354-9.384-10.345-7.048c-6.063,2.364-10.415,4.842-9.674,13.079c0.478,5.312,0.053,10.702,0.129,16.055
				c0.039,2.744,0.782,4.943,4.142,5.46c0.95,0.146,1.683,1.687,2.516,2.588C1703.908,967.242,1703.575,967.596,1703.243,967.95z"/>
			<path style="fill:#1D1D1B;" d="M811.856,967.944c-6.384,0-12.769,0.05-19.151-0.073c-0.681-0.013-1.343-1.034-2.013-1.587
				c0.602-0.673,1.147-1.861,1.815-1.935c3.692-0.407,4.541-2.731,4.527-5.885c-0.032-7.137,0.152-14.279-0.065-21.409
				c-0.216-7.086-4.489-9.681-11.165-7.107c-6.709,2.587-8.771,5.531-8.77,12.529c0.001,5.355-0.035,10.71,0.024,16.064
				c0.031,2.863,0.659,5.25,4.239,5.782c0.915,0.136,1.611,1.729,3.08,3.433c-8.368,0-15.355,0-22.291,0
				c-1.224-2.599,0.077-3.44,2.216-3.596c2.998-0.219,4.339-1.89,4.353-4.743c0.04-8.405,0.022-16.811,0.085-25.215
				c0.021-2.87-1.137-4.507-4.112-4.984c-0.839-0.134-1.523-1.223-2.279-1.874c0.815-0.564,1.555-1.373,2.458-1.647
				c2.563-0.775,5.245-1.174,7.781-2.018c2.519-0.838,3.623-0.148,3.729,2.463c0.071,1.758,0.306,3.51,0.468,5.264
				c0.44,0.356,0.88,0.711,1.321,1.067c0.883-1.338,1.565-2.879,2.685-3.978c4.422-4.341,9.95-5.61,15.923-4.914
				c4.517,0.526,7.597,3.813,7.922,8.975c0.495,7.875,0.559,15.781,0.675,23.676c0.059,4.008-0.052,7.859,5.51,8.289
				c0.683,0.053,1.247,1.628,1.866,2.497C812.409,967.327,812.133,967.636,811.856,967.944z"/>
			<path style="fill:#1D1D1B;" d="M427.301,923.534c4.578,0,9.156,0,14.195,0c0,1.295,0.008,2.519-0.001,3.744
				c-0.073,9.037-0.203,18.075-0.197,27.112c0.003,3.685,1.289,6.463,5.653,6.727c0.695,0.042,1.329,1.072,1.991,1.646
				c-0.638,0.461-1.214,1.096-1.926,1.351c-2.985,1.069-6.129,1.774-8.987,3.099c-2.382,1.103-3.556,1.037-3.85-1.798
				c-0.117-1.125-0.494-2.222-0.878-3.87c-1.307,0.881-2.329,1.776-3.512,2.327c-2.979,1.388-5.927,3.309-9.075,3.787
				c-9.205,1.398-14.663-3.464-14.891-12.848c-0.163-6.745,0.018-13.498-0.067-20.246c-0.045-3.519-0.188-7.04-5.071-7.556
				c-0.693-0.073-1.221-1.684-2.309-3.302c5.86,0,10.72,0,15.606,0c0,8.521,0,16.885,0,25.25c0,1.019-0.016,2.038,0.003,3.056
				c0.081,4.275,0.138,8.606,5.064,10.527c3.621,1.412,9.965-0.87,12.947-4.665c0.675-0.859,1.332-2.035,1.336-3.068
				c0.033-7.506-0.051-15.013-0.214-22.518c-0.062-2.846-1.348-4.722-4.504-5.24c-0.903-0.148-1.576-1.68-2.355-2.578
				C426.606,924.159,426.954,923.847,427.301,923.534z"/>
			<path style="fill:#1D1D1B;" d="M1246.64,962.579c-4.492,3.621-9.113,5.916-14.709,5.235c-4.178-0.508-8.162-1.456-9.963-5.896
				c-1.898-4.679-1.1-9.739,2.966-12.837c3.473-2.646,7.666-4.391,11.642-6.329c1.457-0.71,3.231-0.744,4.812-1.238
				c2.563-0.801,6.099-0.25,5.498-4.985c-0.8-6.297-2.959-9.756-7.402-10.051c-1.75-0.116-3.572,0.165-5.299,0.542
				c-2.678,0.585-3.993,2.252-3.099,5.052c0.718,2.248,0.444,4.309-1.895,5.053c-1.507,0.479-4.325,0.507-4.826-0.312
				c-0.902-1.475-1.226-4.063-0.521-5.611c2.371-5.205,7.231-7.459,12.548-8.352c11.191-1.88,17.924,3.521,18.43,14.767
				c0.298,6.613,0.049,13.25,0.17,19.873c0.093,5.088,0.679,5.445,5.63,4.56c0.629-0.112,1.748,0.418,2.018,0.959
				c0.277,0.554,0.056,1.752-0.405,2.213C1257.825,969.63,1249.604,968.381,1246.64,962.579z M1246.823,943.481
				c-4.705,1.646-8.804,2.671-12.509,4.491c-3.674,1.805-5.395,7.245-4.156,10.928c1.174,3.491,3.793,5.289,7.215,4.953
				c3.756-0.369,9.245-4.395,9.397-7.253C1246.982,952.577,1246.823,948.534,1246.823,943.481z"/>
			<path style="fill:#1D1D1B;" d="M1805.901,963.929c-5.059,1.346-9.792,3.229-14.67,3.736c-5.465,0.567-9.444-2.271-10.79-6.162
				c-1.76-5.089-0.805-10.278,3.994-13.191c5.02-3.046,10.714-5.289,16.4-6.848c4.024-1.103,5.091-2.583,4.448-6.509
				c-1.181-7.219-5.661-10.195-12.559-7.972c-2.635,0.85-3.542,2.309-3.164,5.165c0.207,1.561-0.437,3.897-1.567,4.777
				c-1.059,0.825-4.152,0.857-4.764,0.048c-1.014-1.341-1.529-3.956-0.895-5.471c2.281-5.458,7.271-7.755,12.72-8.657
				c11.208-1.855,17.877,3.55,18.379,14.826c0.289,6.486,0.058,12.994,0.152,19.491c0.076,5.276,0.654,5.67,5.69,4.859
				c0.627-0.101,1.733,0.48,1.994,1.035c0.262,0.556,0,1.739-0.472,2.197C1816.297,969.608,1808.28,968.377,1805.901,963.929z
				 M1805.069,943.636c-4.257,1.473-8.334,2.522-12.071,4.284c-3.364,1.586-5.33,6.703-4.474,10.159
				c0.756,3.051,2.46,5.3,5.83,5.764c2.969,0.408,10.213-2.987,10.556-5.683C1805.49,953.599,1805.069,948.912,1805.069,943.636z"/>
			<path style="fill:#1D1D1B;" d="M1677.116,963.77c-6.878,5.899-13.836,5.305-16.403,0.109c-4.999,1.354-9.722,3.262-14.594,3.785
				c-5.479,0.588-9.508-2.223-10.872-6.055c-1.847-5.19-0.813-10.464,4.182-13.462c5.036-3.023,10.75-5.221,16.445-6.759
				c3.976-1.074,4.757-2.647,4.191-6.322c-1.139-7.387-5.883-10.448-12.823-7.997c-2.479,0.876-3.597,2.391-2.784,4.949
				c0.71,2.234,0.505,4.311-1.834,5.085c-1.502,0.496-4.316,0.557-4.834-0.261c-0.921-1.454-1.266-4.036-0.582-5.593
				c2.243-5.106,6.991-7.304,12.135-8.336c11.176-2.241,18.336,3.305,18.859,14.647c0.305,6.613,0.055,13.249,0.172,19.873
				c0.09,5.104,0.774,5.507,5.592,4.682C1674.822,961.969,1675.899,963.097,1677.116,963.77z M1659.832,943.658
				c-4.208,1.447-8.277,2.489-12.014,4.237c-3.374,1.579-5.368,6.673-4.53,10.136c0.739,3.052,2.432,5.316,5.793,5.809
				c2.959,0.433,10.228-2.919,10.586-5.635C1660.269,953.645,1659.832,948.95,1659.832,943.658z"/>
			<path style="fill:#1D1D1B;" d="M1042.745,967.827c-12.297-0.017-20.764-8.988-20.73-21.964
				c0.037-14.014,8.694-23.22,21.797-23.18c12.343,0.037,20.461,9.022,20.465,22.648
				C1064.281,958.892,1055.711,967.845,1042.745,967.827z M1055.76,947.788c-0.511-6.052-0.98-12.022-4.916-17.034
				c-2.881-3.669-6.743-4.903-11.247-4.234c-4.232,0.629-6.282,3.662-7.453,7.35c-0.65,2.046-1.052,4.209-1.256,6.349
				c-0.618,6.49,0.291,12.753,3.818,18.36c2.488,3.955,6.119,6.144,10.994,5.46c4.713-0.661,7.568-3.588,8.749-8.001
				C1055.164,953.361,1055.341,950.542,1055.76,947.788z"/>
			<path style="fill:#1D1D1B;" d="M544.099,967.827c-12.305-0.015-20.784-8.977-20.756-21.937
				c0.03-14.021,8.681-23.243,21.771-23.206c12.357,0.034,20.48,9.002,20.491,22.622
				C565.616,958.872,557.049,967.843,544.099,967.827z M557.156,947.161c-0.571-5.98-1.21-11.798-5.168-16.612
				c-4.864-5.915-13.627-5.662-17.261,0.429c-4.353,7.296-3.255,22.138,2.117,28.763c2.704,3.335,6.145,4.96,10.456,4.268
				c4.355-0.7,7.174-3.424,8.334-7.504C556.491,953.489,556.673,950.282,557.156,947.161z"/>
			<path style="fill:#1D1D1B;" d="M661.682,967.827c-12.313-0.013-20.802-8.966-20.779-21.914
				c0.025-14.028,8.67-23.263,21.748-23.229c12.369,0.032,20.496,8.985,20.514,22.599
				C683.183,958.856,674.622,967.841,661.682,967.827z M674.648,947.776c-0.511-6.053-0.984-12.021-4.924-17.032
				c-2.884-3.668-6.75-4.896-11.251-4.223c-4.231,0.633-6.277,3.67-7.445,7.359c-0.648,2.047-1.052,4.21-1.254,6.349
				c-0.614,6.49,0.295,12.753,3.826,18.359c2.491,3.954,6.126,6.137,11,5.449c4.711-0.666,7.564-3.597,8.741-8.011
				C674.053,953.349,674.23,950.531,674.648,947.776z"/>
			<path style="fill:#1D1D1B;" d="M1117.914,967.827c-12.236-0.03-20.66-9.067-20.598-22.095
				c0.067-13.967,8.761-23.105,21.929-23.049c12.272,0.053,20.371,9.126,20.333,22.78
				C1139.54,958.994,1130.953,967.859,1117.914,967.827z M1131.062,947.578c-0.502-5.93-1.029-11.758-4.809-16.69
				c-2.939-3.835-6.927-5.11-11.562-4.333c-4.199,0.704-6.176,3.818-7.312,7.513c-0.594,1.933-0.956,3.966-1.164,5.98
				c-0.669,6.491,0.232,12.745,3.701,18.383c2.538,4.125,6.272,6.369,11.292,5.579c4.687-0.738,7.486-3.738,8.597-8.173
				C1130.478,953.147,1130.659,950.335,1131.062,947.578z"/>
			<path style="fill:#1D1D1B;" d="M1485.148,967.827c-12.215-0.034-20.625-9.095-20.551-22.141
				c0.079-13.957,8.781-23.065,21.976-23.002c12.247,0.058,20.34,9.164,20.286,22.826
				C1506.806,959.031,1498.214,967.863,1485.148,967.827z M1498.342,947.786c-0.511-6.052-0.98-12.022-4.917-17.034
				c-2.882-3.669-6.745-4.902-11.247-4.232c-4.232,0.629-6.281,3.663-7.452,7.351c-0.65,2.046-1.052,4.209-1.256,6.349
				c-0.617,6.49,0.291,12.753,3.819,18.36c2.489,3.955,6.12,6.143,10.995,5.458c4.713-0.662,7.568-3.59,8.748-8.003
				C1497.747,953.359,1497.923,950.54,1498.342,947.786z"/>
			<path style="fill:#1D1D1B;" d="M1574.172,928.666c-1.842,0-3.516,0.169-5.126-0.075c-0.749-0.114-1.375-1.03-2.057-1.583
				c0.642-0.666,1.203-1.771,1.943-1.906c1.602-0.293,3.295-0.09,5.543-0.09c0-2.07-0.001-3.921,0-5.772
				c0.004-5.356,1.305-10.329,4.465-14.73c4.291-5.976,11.66-8.867,18.609-6.614c2.421,0.785,4.725,2.923,6.3,5.025
				c1.644,2.195,0.295,4.476-2.009,5.68c-2.178,1.137-4.083,0.288-5.136-1.816c-1.587-3.17-3.05-6.59-7.503-5.472
				c-4.267,1.071-5.467,4.891-5.984,8.544c-0.687,4.852-0.716,9.796-1.051,15.075c4.197,0,7.73,0,11.212,0
				c0.437,3.532,0.284,3.685-3.731,3.742c-2.267,0.032-4.534,0.006-7.016,0.006c0,10.572-0.043,20.721,0.024,30.869
				c0.023,3.425,2.308,4.363,5.363,4.649c1.159,0.109,2.218,1.263,3.323,1.941c-1.183,0.563-2.353,1.578-3.551,1.613
				c-5.879,0.169-11.767,0.137-17.649,0.021c-1.062-0.021-2.109-0.764-3.163-1.174c0.878-0.825,1.67-2.221,2.651-2.369
				c3.17-0.48,4.491-2.35,4.514-5.204C1574.22,949.114,1574.172,939.204,1574.172,928.666z"/>
			<path style="fill:#1D1D1B;" d="M1386.24,957.824c-5.412,12.354-23.58,12.454-30.785,4.78
				c-10.364-11.039-6.138-32.327,7.707-38.478c12.107-5.379,23.276,1.634,23.695,14.763c0.082,2.581-1.084,2.966-3.209,2.946
				c-7.042-0.064-14.084-0.024-21.127-0.023c-1.254,0-2.507,0-4.882,0c1.299,4.826,1.85,9.305,3.681,13.186
				c4.252,9.013,13.617,10.75,21.405,4.513C1383.711,958.72,1385.059,958.376,1386.24,957.824z M1377.743,937.925
				c0.54-7.03-2.026-11.055-7.032-11.5c-6.183-0.549-11.007,4.225-11.526,11.5C1365.286,937.925,1371.38,937.925,1377.743,937.925z"
				/>
			<path style="fill:#1D1D1B;" d="M726.025,941.812c1.309,4.84,1.867,9.322,3.703,13.206c4.256,9.003,13.617,10.723,21.412,4.478
				c0.982-0.787,2.333-1.117,3.699-1.229c-5.17,10.828-22.824,12.95-30.989,4.307c-10.406-11.016-6.123-32.323,7.731-38.458
				c12.082-5.35,23.289,1.709,23.676,14.795c0.077,2.603-1.133,2.94-3.235,2.922c-7.042-0.06-14.084-0.022-21.127-0.022
				C729.644,941.812,728.391,941.812,726.025,941.812z M745.973,937.873c0.95-6.302-1.507-10.64-6.274-11.383
				c-6.257-0.975-11.105,3.462-12.262,11.383C733.647,937.873,739.829,937.873,745.973,937.873z"/>
			<path style="fill:#1D1D1B;" d="M888.193,941.812c1.248,4.755,1.766,9.128,3.52,12.937c4.257,9.244,13.682,11.076,21.607,4.69
				c0.946-0.763,2.177-1.176,3.692-1.098c-2.139,4.603-5.714,7.529-10.357,8.681c-13.151,3.263-24.618-2.414-26.105-17.308
				c-0.853-8.548,1-16.221,7.745-22.164c5.688-5.012,12.268-6.05,19.365-3.985c6.131,1.784,11.27,10.618,9.597,16.531
				c-0.228,0.806-2.074,1.618-3.188,1.642c-7.039,0.149-14.083,0.076-21.125,0.076C891.696,941.812,890.447,941.812,888.193,941.812
				z M908.292,937.901c0.465-7.304-2.262-11.289-7.519-11.503c-6.066-0.247-10.757,4.648-10.983,11.503
				C895.884,937.901,901.974,937.901,908.292,937.901z"/>
			<path style="fill:#1D1D1B;" d="M1068.644,967.635c-0.774-2.364-0.223-3.584,2.311-3.537c3.72,0.068,4.919-2.304,4.93-5.451
				c0.055-16.827,0.043-33.653,0.025-50.48c-0.003-2.757-1.022-4.598-4.226-4.785c-0.917-0.054-1.768-1.232-2.649-1.895
				c0.812-0.571,1.554-1.466,2.448-1.659c4.095-0.884,8.232-1.572,12.522-2.362c0,3.062,0,5.937,0,8.812
				c0,16.572,0,33.144,0.001,49.715c0,0.255-0.003,0.51,0.007,0.765c0.245,6.262,0.79,6.855,7.32,7.627
				c0.067,0.975,0.138,2.019,0.222,3.249C1083.677,967.635,1076.188,967.635,1068.644,967.635z"/>
			<path style="fill:#1D1D1B;" d="M1772.625,967.825c-10.627,0-20.732,0.041-30.836-0.024c-3.192-0.021-3.715-1.23-1.786-4.084
				c5.141-7.608,10.413-15.13,15.513-22.765c2.871-4.299,5.505-8.757,8.615-13.735c-4.974,0-9.175-0.304-13.31,0.089
				c-3.804,0.361-5.216,3.579-6.565,6.732c-0.491,1.146-1.805,1.942-2.743,2.898c-0.322-1.192-0.98-2.406-0.902-3.572
				c0.237-3.513,0.76-7.008,1.131-10.16c10.741,0,21.194,0,32.987,0c-8.09,14.554-16.755,27.458-25.99,40.583
				c5.56,0,10.906,0.841,15.759-0.335c2.652-0.643,4.432-4.734,6.683-7.199c0.901-0.986,2.012-1.782,3.027-2.665
				c0.292,1.312,1,2.693,0.794,3.923C1774.44,960.877,1773.494,964.181,1772.625,967.825z"/>
			<path style="fill:#1D1D1B;" d="M486.566,966.597c-0.305-4.794-0.586-9.214-0.866-13.609c3.347-1.444,3.601,0.767,4.2,2.729
				c2.054,6.729,5.2,9.068,11.265,8.329c3.235-0.394,6.071-1.725,6.883-5.14c0.849-3.57-0.353-6.595-3.772-8.357
				c-3.285-1.693-6.714-3.115-9.97-4.86c-5.866-3.143-8.347-8.481-6.838-14.286c1.182-4.549,6.725-8.709,12.381-8.627
				c4.176,0.06,8.361,0.798,12.49,1.523c0.799,0.14,1.833,1.564,1.937,2.487c0.226,2.001,0.092,4.089-0.239,6.085
				c-0.171,1.031-1.08,1.941-1.655,2.906c-0.747-0.801-1.832-1.478-2.185-2.424c-1.732-4.648-4.639-7.052-8.947-6.94
				c-3.07,0.08-5.492,1.333-6.452,4.42c-0.978,3.149-0.137,5.964,2.722,7.625c2.852,1.657,5.998,2.81,9.007,4.2
				c6.916,3.194,9.939,7.388,9.599,13.292c-0.391,6.781-6.186,11.735-14.508,11.793
				C496.699,967.777,491.774,967.021,486.566,966.597z"/>
			<path style="fill:#1D1D1B;" d="M570.342,946.08c-0.014-10.444,5.48-19.133,14.33-22.308c5.258-1.886,10.596-1.644,15.72,0.54
				c3.205,1.366,5.553,3.684,5.907,7.395c0.3,3.135-1.446,4.848-4.345,5.244c-2.794,0.382-4.249-1.093-4.472-3.925
				c-0.217-2.758-0.835-5.493-3.989-6.307c-3.229-0.834-6.437-0.548-8.956,1.931c-1.253,1.234-2.557,2.648-3.19,4.236
				c-3.116,7.819-3.301,15.719,0.756,23.255c4.331,8.044,12.756,9.291,19.609,3.179c0.57-0.508,0.986-1.25,1.629-1.596
				c0.757-0.407,1.683-0.499,2.536-0.727c-0.072,0.881,0.142,1.929-0.261,2.618c-3.823,6.537-11.815,9.648-20.037,7.916
				C576.056,965.524,570.357,957.504,570.342,946.08z"/>
			<path style="fill:#1D1D1B;" d="M923.792,946.064c-0.011-10.44,5.494-19.134,14.345-22.299c5.258-1.88,10.599-1.638,15.721,0.552
				c3.203,1.37,5.548,3.69,5.893,7.405c0.292,3.14-1.465,4.841-4.361,5.23c-2.8,0.376-4.238-1.118-4.459-3.942
				c-0.216-2.761-0.846-5.489-4.001-6.297c-3.231-0.827-6.438-0.538-8.953,1.946c-1.251,1.236-2.553,2.651-3.184,4.24
				c-3.108,7.821-3.293,15.721,0.769,23.254c4.331,8.031,12.768,9.27,19.615,3.155c0.569-0.508,0.983-1.255,1.627-1.598
				c0.756-0.403,1.685-0.485,2.539-0.707c-0.079,0.883,0.125,1.93-0.281,2.622c-3.839,6.535-11.828,9.636-20.044,7.898
				C929.493,965.511,923.804,957.491,923.792,946.064z"/>
			<path style="fill:#1D1D1B;" d="M1443.592,922.258c4.994,0.36,9.602,1.195,13.002,5.077c3.131,3.575,2.324,8.217-1.551,9.358
				c-2.753,0.81-4.858,0.201-5.314-3.057c-0.431-3.084-0.758-6.283-4.619-7.055c-4.309-0.861-7.766,0.552-10.38,4.124
				c-5.196,7.099-4.422,21.864,1.54,28.368c4.465,4.871,10.741,5.416,16.198,1.366c0.918-0.681,1.628-1.666,2.594-2.248
				c0.91-0.549,2.031-0.752,3.059-1.108c-0.209,0.998-0.144,2.178-0.67,2.968c-6.273,9.418-20.89,10.738-28.887,2.675
				c-11.072-11.163-6.79-32.952,7.678-38.674C1438.563,923.133,1441.135,922.84,1443.592,922.258z"/>
			<path style="fill:#1D1D1B;" d="M861.673,927.115c0,10.679-0.204,20.849,0.094,31.005c0.132,4.493,3.044,5.338,8.211,3.112
				c1.321-0.569,2.861-0.636,4.3-0.934c-0.914,1.351-1.545,3.133-2.806,3.959c-2.201,1.443-4.692,2.7-7.238,3.319
				c-6.183,1.504-10.099-1.128-10.668-7.486c-0.52-5.818-0.283-11.706-0.329-17.563c-0.039-4.951-0.008-9.903-0.008-15.119
				c-1.36-0.1-2.524,0.017-3.538-0.318c-0.979-0.323-1.803-1.113-2.695-1.697c0.927-0.647,1.777-1.508,2.805-1.874
				c0.885-0.315,1.974-0.065,3.428-0.065c0-2.53,0.313-4.839-0.069-7.027c-0.678-3.885,0.838-5.94,4.548-6.778
				c1.074-0.243,2.085-0.764,3.619-1.344c0,5.202,0,9.931,0,15.146c3.649,0,6.935-0.097,10.209,0.064
				c0.887,0.044,1.735,0.87,2.601,1.337c-0.843,0.754-1.637,2.084-2.537,2.16C868.432,927.278,865.229,927.115,861.673,927.115z"/>
			<path style="fill:#1D1D1B;" d="M1194.624,966.572c0.875-0.621,1.686-1.638,2.637-1.791c3.499-0.561,4.653-2.743,4.657-5.91
				c0.009-8.03,0.023-16.06-0.001-24.089c-0.008-2.805-0.879-4.957-4.122-5.503c-0.735-0.124-1.316-1.15-1.968-1.76
				c0.48-0.49,0.883-1.274,1.453-1.422c4.419-1.152,8.87-2.181,13.757-3.355c0,6.385-0.001,12.583,0,18.781
				c0.001,5.736,0.062,11.472-0.016,17.207c-0.047,3.412,1.109,5.594,4.823,6.098c0.881,0.12,1.621,1.27,2.426,1.946
				c-0.212,0.297-0.425,0.595-0.637,0.892c-7.392,0-14.785,0-22.177,0C1195.179,967.301,1194.902,966.937,1194.624,966.572z"/>
			<path style="fill:#1D1D1B;" d="M1622.884,923.468c0,3.939-0.006,7.723,0.001,11.506c0.016,7.638,0.063,15.276,0.048,22.913
				c-0.007,3.649,1.03,6.221,5.349,6.323c0.733,0.017,1.437,1.243,2.154,1.91c-0.816,0.568-1.621,1.61-2.45,1.628
				c-6.133,0.14-12.272,0.137-18.406,0.003c-0.826-0.018-1.63-1.023-2.444-1.571c0.773-0.679,1.51-1.892,2.326-1.946
				c4.053-0.272,5.113-2.694,5.106-6.195c-0.015-7.636-0.005-15.273,0.062-22.91c0.028-3.208-0.911-5.432-4.565-5.828
				c-0.709-0.077-1.386-1.14-1.873-1.881c-0.081-0.123,0.823-1.255,1.388-1.374C1613.925,925.125,1618.297,924.339,1622.884,923.468
				z"/>
			<path style="fill:#1D1D1B;" d="M626.306,923.461c0,10.211-0.006,19.993,0.005,29.775c0.002,1.908,0.078,3.817,0.113,5.725
				c0.057,3.161,1.465,4.933,4.821,5.218c0.924,0.078,1.757,1.219,2.632,1.873c-0.926,0.592-1.839,1.671-2.78,1.695
				c-6.004,0.156-12.016,0.14-18.022,0.009c-0.846-0.019-1.672-0.979-2.507-1.503c0.746-0.699,1.458-1.956,2.245-2.005
				c4.306-0.265,5.201-2.917,5.187-6.518c-0.029-7.509-0.002-15.018,0.056-22.527c0.024-3.16-0.798-5.482-4.495-5.884
				c-0.732-0.08-1.355-1.157-2.028-1.775c0.59-0.534,1.106-1.402,1.781-1.548C617.529,925.08,621.779,924.324,626.306,923.461z"/>
			<path style="fill:#1D1D1B;" d="M1202.081,916.712c1.324-3.418,2.64-6.84,3.974-10.254c2.612-6.684,3.579-7.25,11.339-6.424
				c-0.299,0.835-0.415,1.695-0.862,2.321c-3.393,4.745-6.773,9.504-10.357,14.104c-0.68,0.873-2.254,1.055-3.415,1.555
				C1202.534,917.581,1202.308,917.147,1202.081,916.712z"/>
			<path style="fill:#1D1D1B;" d="M1618.494,912.731c-2.684-0.006-5.044-2.437-4.99-5.139c0.052-2.592,2.58-4.881,5.36-4.789
				c3.156,0.104,4.448,2.192,4.724,4.917C1623.85,910.3,1621.2,912.737,1618.494,912.731z"/>
			<path style="fill:#1D1D1B;" d="M623.029,902.795c2.267,0.105,3.653,2.078,3.982,4.817c0.309,2.571-2.279,5.069-4.985,5.119
				c-2.677,0.049-5.101-2.338-5.109-5.032C616.908,905.119,619.403,902.793,623.029,902.795z"/>
		</g>
	</g>
</g>
<g id="Capa_5" style="display:none;">
	<g id="Capa_6" style="display:inline;">
		<rect x="2.29" y="-0.806" style="fill:#1D1D1B;" width="2160" height="1080"/>
	</g>
	<g style="display:inline;">
		<g>
			<path style="fill:#FFFFFF;" d="M833.796,342.64c0-85.808,0-171.616,0-257.425c164.713,0,329.426,0,494.139,0
				c0,85.808,0,171.616,0,257.425c-1.021-0.16-2.05-0.083-3.075-0.083c-72.444-0.004-144.889-0.002-217.333-0.004
				c-90.931-0.002-181.861-0.008-272.792-0.013C834.416,342.54,834.103,342.556,833.796,342.64z"/>
			<path style="fill:#FFFFFF;" d="M1144.662,609.094c-103.622,0-207.244,0-310.866,0c0-85.912,0-171.825,0-257.737
				c1.263-0.003,2.526-0.008,3.79-0.008c101.224,0,202.448,0,303.672,0c0.632,0,1.263-0.003,1.895,0.002
				c0.315,0.002,0.631,0.019,0.946,0.029c0.311,0.01,0.618,0.284,0.657,0.549c0.129,0.865,0.065,1.733,0.065,2.6
				c0.004,83.836,0.004,167.671,0.003,251.507c0,0.789,0,1.579-0.022,2.368C1144.795,608.635,1144.71,608.864,1144.662,609.094z"/>
		</g>
		<g>
			<path style="fill:#FFFFFF;" d="M377.895,684.664c12.438,0,24.644-0.131,36.839,0.172c1.467,0.036,3.424,2.157,4.228,3.77
				c10.136,20.325,20.098,40.736,30.117,61.119c0.625,1.272,1.345,2.497,2.351,4.352c6.665-13.607,13.022-26.553,19.348-39.514
				c4.402-9.021,8.677-18.106,13.231-27.05c0.649-1.275,2.537-2.705,3.875-2.728c12.043-0.211,24.092-0.123,36.481-0.123
				c0,46.033,0,91.769,0,137.875c-13.242,0-26.513,0-40.16,0c0-22.043,0-43.904,0-65.766c-0.334-0.109-0.669-0.218-1.003-0.328
				c-2.839,5.766-5.689,11.526-8.512,17.299c-3.687,7.539-7.209,15.164-11.147,22.569c-0.779,1.466-3.115,2.112-4.743,3.119
				c-0.119,0.074-0.325,0.012-0.49,0.01c-5.93-0.098-13.008,1.75-17.458-0.859c-4.21-2.467-5.744-9.572-8.308-14.71
				c-4.511-9.042-8.91-18.14-14.33-26.968c0,21.798,0,43.596,0,65.695c-13.625,0-26.782,0-40.316,0
				C377.895,776.826,377.895,731.106,377.895,684.664z"/>
			<path style="fill:#FFFFFF;" d="M1689.369,822.595c-13.611,0-26.768,0-40.303,0c0-22.149,0-43.994,0-65.838
				c-0.308-0.092-0.617-0.185-0.925-0.277c-2.845,5.788-5.704,11.57-8.533,17.366c-3.609,7.394-7.302,14.75-10.732,22.225
				c-1.223,2.665-2.844,3.576-5.72,3.431c-4.617-0.232-9.269-0.276-13.88,0.012c-3.144,0.196-4.696-1.02-6.002-3.75
				c-6.245-13.048-12.679-26.006-19.793-38.912c0,21.721,0,43.442,0,65.606c-13.804,0-27.072,0-40.669,0
				c0-45.697,0-91.425,0-137.798c9.692,0,19.427,0.584,29.055-0.182c7.948-0.632,11.661,2.17,14.944,9.445
				c9.052,20.06,19.237,39.611,29.322,60.068c0.809-1.256,1.347-1.932,1.716-2.689c10.316-21.153,20.584-42.329,30.992-63.436
				c0.659-1.336,2.374-3.039,3.627-3.062c12.197-0.23,24.401-0.138,36.903-0.138
				C1689.369,730.784,1689.369,776.529,1689.369,822.595z"/>
			<path style="fill:#FFFFFF;" d="M1078.114,822.895c-11.153,0-21.877,0.13-32.59-0.147c-1.512-0.039-3.367-1.778-4.398-3.208
				c-15.321-21.261-30.53-42.603-45.768-63.924c-0.915-1.28-1.856-2.541-3.478-4.758c0,24.535,0,47.848,0,71.602
				c-13.619,0-26.884,0-40.48,0c0-45.689,0-91.406,0-137.769c10.976,0,21.982-0.116,32.979,0.153
				c1.309,0.032,2.824,1.976,3.808,3.344c15.202,21.145,30.329,42.344,45.485,63.522c1,1.398,2.09,2.732,3.855,5.029
				c0-24.616,0-48.068,0-71.797c13.711,0,27,0,40.588,0C1078.114,730.784,1078.114,776.517,1078.114,822.895z"/>
			<path style="fill:#FFFFFF;" d="M1896.774,822.894c-11.185,0-21.91,0.13-32.624-0.148c-1.509-0.039-3.356-1.794-4.388-3.226
				c-15.32-21.262-30.529-42.603-45.767-63.924c-0.91-1.273-1.847-2.527-3.579-4.892c0,13.009,0,24.637,0,36.265
				c0,11.691,0,23.383,0,35.503c-13.515,0-26.785,0-40.375,0c0-45.715,0-91.434,0-137.78c11.007,0,22.016-0.116,33.014,0.154
				c1.305,0.032,2.812,1.991,3.798,3.362c14.724,20.474,29.377,40.999,44.047,61.512c1.436,2.008,2.872,4.016,5.081,7.105
				c0-24.652,0-48.14,0-71.892c13.925,0,27.214,0,40.794,0C1896.774,730.804,1896.774,776.539,1896.774,822.894z"/>
			<path style="fill:#FFFFFF;" d="M682.107,757.177c-0.961,6.65-1.693,15.873-3.708,24.808
				c-4.566,20.243-17.453,33.312-37.17,39.298c-20.429,6.203-41.136,6.132-61.542-0.083c-19.987-6.087-32.395-19.773-37.112-40.039
				c-4.014-17.246-4.018-34.63-0.315-51.961c5.398-25.263,21.239-39.707,46.458-44.423c15.133-2.83,30.264-2.77,45.324,0.218
				c26.618,5.281,42.81,22.963,46.246,50.383C681.086,741.74,681.372,748.165,682.107,757.177z M640.917,754.625
				c-0.268-0.053-0.536-0.107-0.804-0.16c-0.189-3.453-0.23-6.922-0.593-10.357c-1.696-16.043-8.347-24.096-22.108-26.199
				c-4.193-0.641-8.629-0.652-12.834-0.079c-12.124,1.652-18.742,7.577-21.343,18.872c-2.621,11.383-2.772,22.853-0.15,34.278
				c2.451,10.678,8.828,17.814,19.901,19.265c5.781,0.757,11.893,0.363,17.677-0.589c8.11-1.335,13.855-6.473,16.128-14.345
				C638.735,768.579,639.584,761.533,640.917,754.625z"/>
			<path style="fill:#FFFFFF;" d="M1235.813,757.177c-0.961,6.65-1.693,15.873-3.708,24.809
				c-4.566,20.243-17.453,33.312-37.17,39.298c-20.429,6.203-41.136,6.132-61.542-0.083c-19.987-6.087-32.395-19.773-37.112-40.039
				c-4.014-17.246-4.019-34.63-0.316-51.962c5.398-25.263,21.239-39.707,46.458-44.423c15.133-2.83,30.264-2.77,45.324,0.218
				c26.618,5.281,42.81,22.962,46.246,50.383C1234.792,741.74,1235.078,748.165,1235.813,757.177z M1194.57,754.817
				c-0.247-0.049-0.494-0.099-0.74-0.148c-0.203-3.617-0.229-7.255-0.64-10.848c-1.833-16.046-8.545-24.06-22.36-25.935
				c-4.664-0.633-9.571-0.269-14.277,0.337c-10.291,1.325-16.737,7.431-19.275,17.338c-3.159,12.332-3.304,24.784-0.016,37.125
				c2.622,9.843,9.058,16.202,19.229,17.512c5.788,0.745,11.887,0.415,17.676-0.499c8.337-1.316,14.128-6.602,16.444-14.652
				C1192.505,768.467,1193.292,761.572,1194.57,754.817z"/>
			<path style="fill:#FFFFFF;" d="M1398.764,822.905c0-46.316,0-91.92,0-137.875c1.319-0.127,2.572-0.352,3.826-0.353
				c20.985-0.022,41.974-0.2,62.955,0.095c6.383,0.09,12.877,0.95,19.098,2.404c23.202,5.425,36.582,20.438,41.17,43.471
				c3.055,15.34,3.245,30.777,0.125,46.112c-5.15,25.31-21.008,40.467-46.553,44.564c-6.003,0.963-12.138,1.452-18.219,1.513
				c-18.836,0.19-37.674,0.07-56.511,0.07C1402.858,822.905,1401.063,822.905,1398.764,822.905z M1439.475,791.519
				c7.776,0,15.064,0.496,22.259-0.108c13.115-1.1,20.248-6.914,22.863-18.853c2.849-13.004,2.786-26.174-0.597-39.12
				c-1.819-6.961-5.738-12.524-12.884-15.212c-10.347-3.892-21.024-2.432-31.641-2.712
				C1439.475,741.208,1439.475,766.208,1439.475,791.519z"/>
			<path style="fill:#FFFFFF;" d="M736.721,782.627c0,13.638,0,26.612,0,39.929c-13.621,0-26.913,0-40.439,0
				c0-45.904,0-91.631,0-137.267c0.488-0.248,0.767-0.514,1.046-0.515c25.612-0.04,51.233-0.474,76.835,0.037
				c24.67,0.493,41.129,17.226,43.319,42.024c1.857,21.024-5.687,36.918-23.516,47.036c7.348,16.064,14.663,32.058,22.429,49.035
				c-10.242,0-19.388-0.937-28.255,0.234c-11.433,1.509-17.565-2.442-20.61-13.446c-1.866-6.742-5.629-12.947-8.337-19.477
				c-2.153-5.191-5.795-7.773-11.458-7.608C744.29,782.708,740.842,782.627,736.721,782.627z M737.03,715.665
				c0,12.02,0,23.607,0,35.563c7.995,0,15.715,0.219,23.418-0.055c9.693-0.346,15.359-6.643,15.584-16.768
				c0.261-11.692-4.589-18.069-14.933-18.651C753.233,715.31,745.322,715.665,737.03,715.665z"/>
			<path style="fill:#FFFFFF;" d="M929.99,738.027c0,10.575,0,20.571,0,31.191c-18.54,0-37.104,0-55.983,0
				c0,7.766,0,14.916,0,22.476c21.202,0,42.29,0,63.776,0c0,10.351,0,20.311,0,30.745c-34.569,0-69.309,0-104.424,0
				c0-45.603,0-91.313,0-137.402c34.624,0,69.393,0,104.494,0c0,9.907,0,19.864,0,30.358c-21.234,0-42.449,0-63.913,0
				c0,7.702,0,14.875,0,22.633C892.601,738.027,911.173,738.027,929.99,738.027z"/>
			<path style="fill:#FFFFFF;" d="M1383.545,822.904c-13.551,0-26.597,0.082-39.639-0.131c-1.262-0.021-3.087-1.625-3.642-2.922
				c-3.168-7.408-6.107-14.917-8.954-22.455c-0.964-2.553-2.071-3.892-5.208-3.827c-11.404,0.233-22.819,0.224-34.224,0.005
				c-3.109-0.06-4.275,1.2-5.232,3.822c-2.707,7.414-5.526,14.795-8.603,22.062c-0.61,1.44-2.55,3.272-3.908,3.297
				c-12.561,0.238-25.13,0.124-37.696,0.084c-0.437-0.001-0.874-0.298-1.816-0.641c2.222-5.896,4.37-11.693,6.587-17.463
				c14.872-38.696,29.78-77.378,44.596-116.096c1.062-2.775,2.3-4.138,5.614-4.072c11.901,0.235,23.811-0.02,35.711,0.225
				c1.607,0.033,4.089,1.51,4.633,2.91c17.208,44.316,34.226,88.706,51.265,133.087
				C1383.196,821.226,1383.256,821.704,1383.545,822.904z M1293.939,763.768c10.291,0,19.874,0,30.086,0
				c-5.031-13.163-9.858-25.793-15.069-39.428C1303.717,738.095,1298.887,750.777,1293.939,763.768z"/>
			<path style="fill:#FFFFFF;" d="M262.774,684.857c34.572,0,68.907,0,103.619,0c0,9.726,0,19.493,0,29.759
				c-20.908,0-41.799,0-62.987,0c0,7.989,0,15.49,0,23.511c18.199,0,36.449,0,54.979,0c0,10.467,0,20.419,0,30.805
				c-18.268,0-36.371,0-54.99,0c0,17.951,0,35.486,0,53.493c-13.756,0-27.006,0-40.621,0
				C262.774,776.819,262.774,731.111,262.774,684.857z"/>
			<path style="fill:#FFFFFF;" d="M1749.567,822.573c-13.379,0-26.678,0-40.177,0c0-45.868,0-91.502,0-137.526
				c13.287,0,26.57,0,40.177,0C1749.567,730.758,1749.567,776.498,1749.567,822.573z"/>
		</g>
		<g>
			<path style="fill:#FFFFFF;" d="M1155.293,950.633c-3.856,7.585-1.486,11.717,6.526,11.826c4.734,0.064,9.476-0.136,14.203,0.056
				c8.531,0.347,14.398,6.999,11.844,13.959c-1.1,2.996-3.634,6.014-6.334,7.783c-8.101,5.306-17.231,6.847-26.808,5.228
				c-4.805-0.812-8.924-2.876-10.129-8.046c-1.199-5.146,1.188-9.146,4.973-12.457c0.669-0.585,1.371-1.133,2.285-1.885
				c-6.165-6.25-4.296-12.543-0.036-18.827c-6.903-7.777-5.096-15.518-1.493-19.723c5.458-6.369,14.618-7.596,23.699-3.482
				c2.971-1.818,5.519-3.746,8.372-4.967c1.43-0.612,3.88-0.539,5.016,0.33c1.099,0.84,1.819,3.301,1.426,4.69
				c-0.645,2.279-2.769,2.495-5.066,1.718c-1.911-0.646-3.983-0.824-6.21-0.683c4.781,7.316,5.637,14.232,0.15,20.855
				C1172.835,952.896,1164.358,954.073,1155.293,950.633z M1163.63,967.064c-0.051,0.244-0.101,0.488-0.152,0.732
				c-2.426,0-4.868-0.163-7.271,0.075c-1.062,0.105-2.43,0.768-2.995,1.616c-3.591,5.382-1.765,12.503,4.131,15.17
				c7.685,3.478,15.05,1.597,21.787-2.668c5.411-3.426,5.163-9.367-0.766-11.782C1173.787,968.344,1168.565,968.054,1163.63,967.064
				z M1155.585,938.177c0.176,0.998,0.339,3.178,0.969,5.214c1.152,3.723,3.891,5.415,7.798,5.445c3.88,0.03,7.285-1.45,7.799-5.252
				c0.553-4.093,0.326-8.584-0.882-12.496c-0.618-2.002-3.95-4.001-6.355-4.466C1158.613,925.401,1155.152,929.552,1155.585,938.177
				z"/>
			<path style="fill:#FFFFFF;" d="M1329.34,961.356c-2.168,1.472-3.9,2.726-5.707,3.86c-8.113,5.09-17.339,2.719-21.942-5.605
				c-6.826-12.346-2.296-28.968,9.458-34.976c4.702-2.404,9.679-2.325,14.629-1.632c2.822,0.395,3.743-0.319,3.613-3.069
				c-0.205-4.324-0.197-8.658-0.334-12.985c-0.082-2.568-1.387-3.836-4.056-4.119c-1.104-0.117-2.097-1.269-3.909-2.452
				c6.34-1.433,11.245-2.541,16.621-3.755c-0.15,3.051-0.384,5.678-0.39,8.305c-0.035,16.193-0.038,32.385-0.006,48.578
				c0.011,5.412,0.65,6.101,5.878,7.61c0.665,0.192,1.144,1.019,1.71,1.552c-0.483,0.475-0.882,1.172-1.462,1.388
				c-3.44,1.279-6.888,2.568-10.419,3.547c-0.707,0.196-2.204-0.725-2.599-1.502C1329.775,964.822,1329.729,963.24,1329.34,961.356z
				 M1329.362,944.545c0-2.924,0-5.849,0-8.773c0-0.254,0.006-0.509-0.009-0.763c-0.28-4.61-3.567-8.035-8.204-8.55
				c-5.594-0.622-9.804,1.678-11.806,6.981c-2.744,7.269-2.777,14.691,0.027,21.962c2.171,5.628,6.371,8.458,10.547,7.536
				c5.868-1.295,9.441-5.653,9.445-11.526C1329.365,949.122,1329.364,946.834,1329.362,944.545z"/>
			<path style="fill:#FFFFFF;" d="M354.23,966.572c0.969-0.757,1.846-1.984,2.923-2.194c7.022-1.37,7.383-1.696,7.388-8.902
				c0.009-12.74,0.007-25.479-0.004-38.219c-0.001-1.4,0.01-2.811-0.157-4.197c-0.548-4.568-1.793-5.587-6.448-5.688
				c-7.026-0.153-12.985,1.335-15.496,9.01c-0.266,0.813-1.971,1.159-3.902,2.206c0.895-5.619,1.475-9.879,2.337-14.082
				c0.151-0.735,1.484-1.754,2.276-1.759c17.508-0.101,35.017-0.077,52.722-0.077c0.503,4.913,0.967,9.442,1.449,14.145
				c-2.229,1.342-3.378,0.721-4.365-1.75c-2.33-5.833-10.007-9.525-15.817-7.317c-1.55,0.589-3.011,3.097-3.306,4.918
				c-0.564,3.483-0.313,7.106-0.308,10.67c0.015,10.828,0.065,21.655,0.12,32.482c0.035,6.873,0.572,7.396,7.437,8.374
				c0.88,0.125,1.638,1.104,2.453,1.687c-0.74,0.648-1.471,1.848-2.221,1.859c-8.798,0.131-17.598,0.084-26.397,0.084
				C354.686,967.406,354.458,966.989,354.23,966.572z"/>
			<path style="fill:#FFFFFF;" d="M985.632,967.943c-6.385,0-12.771,0.049-19.154-0.072c-0.681-0.013-1.343-1.027-2.014-1.577
				c0.599-0.658,1.165-1.849,1.802-1.888c4.448-0.268,5.394-2.945,5.338-6.763c-0.114-7.894-0.063-15.791-0.036-23.686
				c0.009-2.731-1.184-4.224-3.959-4.699c-0.882-0.151-1.615-1.16-2.417-1.777c0.898-0.622,1.714-1.498,2.71-1.814
				c2.429-0.771,5.008-1.095,7.403-1.945c2.776-0.985,3.795-0.054,3.889,2.666c0.059,1.72,0.324,3.433,0.557,5.75
				c1.579-1.505,2.672-2.54,3.756-3.582c4.474-4.296,9.94-5.641,15.92-4.993c4.667,0.505,7.757,3.832,8.082,9.238
				c0.481,8.004,0.557,16.037,0.644,24.059c0.042,3.878,0.407,7.173,5.38,7.634c0.742,0.069,1.341,1.668,2.389,3.072
				c-1.705,0.221-2.326,0.369-2.948,0.371c-6.259,0.017-12.519,0.01-19.679-0.823c0.764-0.971,1.408-2.631,2.313-2.786
				c3.001-0.515,4.218-2.196,4.23-4.963c0.034-7.774,0.228-15.557-0.081-23.319c-0.231-5.802-4.252-8.221-9.893-6.52
				c-7.252,2.186-9.984,5.796-9.981,13.197c0.002,5.355-0.042,10.71,0.037,16.063c0.04,2.72,0.712,4.972,4.092,5.499
				c0.967,0.151,1.723,1.648,2.575,2.528C986.269,967.19,985.951,967.567,985.632,967.943z"/>
			<path style="fill:#FFFFFF;" d="M1534.873,967.789c-8.17,0-15.047,0-22.064,0c-1.041-2.171-0.474-3.425,1.944-3.578
				c3.401-0.215,4.645-2.158,4.644-5.307c-0.005-8.151-0.007-16.302,0.063-24.452c0.026-2.997-1.077-4.799-4.262-5.271
				c-0.795-0.118-1.434-1.284-2.145-1.969c0.73-0.51,1.392-1.252,2.202-1.487c2.695-0.78,5.497-1.219,8.157-2.091
				c2.683-0.88,3.502,0.203,3.617,2.638c0.083,1.753,0.324,3.498,0.428,4.559c4.295-2.324,8.334-5.406,12.892-6.787
				c9.07-2.748,14.492,1.15,15.178,10.547c0.546,7.485,0.431,15.022,0.485,22.537c0.027,3.756,0.47,6.908,5.26,7.339
				c0.795,0.072,1.456,1.62,2.729,3.143c-2.214,0.18-3.214,0.328-4.214,0.332c-5.992,0.022-11.984,0.011-17.976,0.011
				c-0.252-0.37-0.505-0.74-0.757-1.11c0.882-0.898,1.656-2.402,2.667-2.582c3.112-0.553,3.962-2.501,3.974-5.164
				c0.035-7.519,0.199-15.045-0.047-22.556c-0.205-6.272-4.243-8.849-10.195-6.951c-7.081,2.259-9.721,5.794-9.72,13.018
				c0.001,5.227-0.021,10.454,0.014,15.681c0.02,3.008,0.597,5.534,4.377,6.069C1532.97,964.48,1533.598,966.133,1534.873,967.789z"
				/>
			<path style="fill:#FFFFFF;" d="M1703.243,967.95c-6.259,0-12.52,0.061-18.776-0.076c-0.794-0.017-1.566-1.065-2.348-1.636
				c0.744-0.668,1.444-1.848,2.241-1.917c3.828-0.331,4.896-2.567,4.874-5.969c-0.052-8.023-0.028-16.046,0.019-24.069
				c0.016-2.82-1.01-4.572-4.038-5.042c-0.861-0.134-1.578-1.185-2.36-1.815c0.789-0.588,1.495-1.443,2.382-1.713
				c2.561-0.78,5.261-1.132,7.781-2.012c2.853-0.996,3.752,0.102,3.839,2.742c0.053,1.634,0.274,3.263,0.501,5.808
				c1.449-1.399,2.401-2.273,3.302-3.197c3.783-3.877,8.434-5.607,13.803-5.606c6.569,0.001,10.265,2.927,10.706,9.41
				c0.536,7.871,0.552,15.781,0.65,23.676c0.048,3.936,0.173,7.518,5.432,7.966c0.719,0.061,1.313,1.572,1.965,2.412
				c-0.175,0.342-0.35,0.684-0.525,1.026c-6.592,0-13.186,0.039-19.776-0.068c-0.575-0.009-1.558-0.957-1.588-1.509
				c-0.034-0.633,0.745-1.85,1.24-1.886c4.952-0.363,5.055-3.869,5.049-7.453c-0.011-6.755,0.102-13.517-0.141-20.265
				c-0.235-6.51-4.354-9.384-10.345-7.048c-6.063,2.364-10.415,4.842-9.674,13.079c0.478,5.312,0.053,10.702,0.129,16.055
				c0.039,2.744,0.782,4.943,4.142,5.46c0.95,0.146,1.683,1.687,2.516,2.588C1703.908,967.242,1703.575,967.596,1703.243,967.95z"/>
			<path style="fill:#FFFFFF;" d="M811.856,967.944c-6.384,0-12.769,0.05-19.151-0.073c-0.681-0.013-1.343-1.034-2.013-1.587
				c0.602-0.673,1.147-1.861,1.815-1.935c3.692-0.407,4.541-2.731,4.527-5.885c-0.032-7.137,0.152-14.279-0.065-21.409
				c-0.216-7.086-4.489-9.681-11.165-7.107c-6.709,2.587-8.771,5.531-8.77,12.529c0.001,5.355-0.035,10.71,0.024,16.064
				c0.031,2.863,0.659,5.25,4.239,5.782c0.915,0.136,1.611,1.729,3.08,3.433c-8.368,0-15.355,0-22.291,0
				c-1.224-2.599,0.077-3.44,2.216-3.596c2.998-0.219,4.339-1.89,4.353-4.743c0.04-8.405,0.022-16.811,0.085-25.215
				c0.021-2.87-1.137-4.507-4.112-4.984c-0.839-0.134-1.523-1.223-2.279-1.874c0.815-0.564,1.555-1.373,2.458-1.647
				c2.563-0.775,5.245-1.174,7.781-2.018c2.519-0.838,3.623-0.148,3.729,2.463c0.071,1.758,0.306,3.51,0.468,5.264
				c0.44,0.356,0.88,0.711,1.321,1.067c0.883-1.338,1.565-2.879,2.685-3.978c4.422-4.341,9.95-5.61,15.923-4.914
				c4.517,0.526,7.597,3.813,7.922,8.975c0.495,7.875,0.559,15.781,0.675,23.676c0.059,4.008-0.052,7.859,5.51,8.289
				c0.683,0.053,1.247,1.628,1.866,2.497C812.409,967.327,812.133,967.636,811.856,967.944z"/>
			<path style="fill:#FFFFFF;" d="M427.301,923.534c4.578,0,9.156,0,14.195,0c0,1.295,0.008,2.519-0.001,3.744
				c-0.073,9.037-0.203,18.075-0.197,27.112c0.003,3.685,1.289,6.463,5.653,6.727c0.695,0.042,1.329,1.072,1.991,1.646
				c-0.638,0.461-1.214,1.096-1.926,1.351c-2.985,1.069-6.129,1.774-8.987,3.099c-2.382,1.103-3.556,1.037-3.85-1.798
				c-0.117-1.125-0.494-2.222-0.878-3.87c-1.307,0.881-2.329,1.776-3.512,2.327c-2.979,1.388-5.927,3.309-9.075,3.787
				c-9.205,1.398-14.663-3.464-14.891-12.848c-0.163-6.745,0.018-13.498-0.067-20.246c-0.045-3.519-0.188-7.04-5.071-7.556
				c-0.693-0.073-1.221-1.684-2.309-3.302c5.86,0,10.72,0,15.606,0c0,8.521,0,16.885,0,25.25c0,1.019-0.016,2.038,0.003,3.056
				c0.081,4.275,0.138,8.606,5.064,10.527c3.621,1.412,9.965-0.87,12.947-4.665c0.675-0.859,1.332-2.035,1.336-3.068
				c0.033-7.506-0.051-15.013-0.214-22.518c-0.062-2.846-1.348-4.722-4.504-5.24c-0.903-0.148-1.576-1.68-2.355-2.578
				C426.606,924.159,426.954,923.847,427.301,923.534z"/>
			<path style="fill:#FFFFFF;" d="M1246.64,962.579c-4.492,3.621-9.113,5.916-14.709,5.235c-4.178-0.508-8.162-1.456-9.963-5.896
				c-1.898-4.679-1.1-9.739,2.966-12.837c3.473-2.646,7.666-4.391,11.642-6.329c1.457-0.71,3.231-0.744,4.812-1.238
				c2.563-0.801,6.099-0.25,5.498-4.985c-0.8-6.297-2.959-9.756-7.402-10.051c-1.75-0.116-3.572,0.165-5.299,0.542
				c-2.678,0.585-3.993,2.252-3.099,5.052c0.718,2.248,0.444,4.309-1.895,5.053c-1.507,0.479-4.325,0.507-4.826-0.312
				c-0.902-1.475-1.226-4.063-0.521-5.611c2.371-5.205,7.231-7.459,12.548-8.352c11.191-1.88,17.924,3.521,18.43,14.767
				c0.298,6.613,0.049,13.25,0.17,19.873c0.093,5.088,0.679,5.445,5.63,4.56c0.629-0.112,1.748,0.418,2.018,0.959
				c0.277,0.554,0.056,1.752-0.405,2.213C1257.825,969.63,1249.604,968.381,1246.64,962.579z M1246.823,943.481
				c-4.705,1.646-8.804,2.671-12.509,4.491c-3.674,1.805-5.395,7.245-4.156,10.928c1.174,3.491,3.793,5.289,7.215,4.953
				c3.756-0.369,9.245-4.395,9.397-7.253C1246.982,952.577,1246.823,948.534,1246.823,943.481z"/>
			<path style="fill:#FFFFFF;" d="M1805.901,963.929c-5.059,1.346-9.792,3.229-14.67,3.736c-5.465,0.567-9.444-2.271-10.79-6.162
				c-1.76-5.089-0.805-10.278,3.994-13.191c5.02-3.046,10.714-5.289,16.4-6.848c4.024-1.103,5.091-2.583,4.448-6.509
				c-1.181-7.219-5.661-10.195-12.559-7.972c-2.635,0.85-3.542,2.309-3.164,5.165c0.207,1.561-0.437,3.897-1.567,4.777
				c-1.059,0.825-4.152,0.857-4.764,0.048c-1.014-1.341-1.529-3.956-0.895-5.471c2.281-5.458,7.271-7.755,12.72-8.657
				c11.208-1.855,17.877,3.55,18.379,14.826c0.289,6.486,0.058,12.994,0.152,19.491c0.076,5.276,0.654,5.67,5.69,4.859
				c0.627-0.101,1.733,0.48,1.994,1.035c0.262,0.556,0,1.739-0.472,2.197C1816.297,969.608,1808.28,968.377,1805.901,963.929z
				 M1805.069,943.636c-4.257,1.473-8.334,2.522-12.071,4.284c-3.364,1.586-5.33,6.703-4.474,10.159
				c0.756,3.051,2.46,5.3,5.83,5.764c2.969,0.408,10.213-2.987,10.556-5.683C1805.49,953.599,1805.069,948.912,1805.069,943.636z"/>
			<path style="fill:#FFFFFF;" d="M1677.116,963.77c-6.878,5.899-13.836,5.305-16.403,0.109c-4.999,1.354-9.722,3.262-14.594,3.785
				c-5.479,0.588-9.508-2.223-10.872-6.055c-1.847-5.19-0.813-10.464,4.182-13.462c5.036-3.023,10.75-5.221,16.445-6.759
				c3.976-1.074,4.757-2.647,4.191-6.322c-1.139-7.387-5.883-10.448-12.823-7.997c-2.479,0.876-3.597,2.391-2.784,4.949
				c0.71,2.234,0.505,4.311-1.834,5.085c-1.502,0.496-4.316,0.557-4.834-0.261c-0.921-1.454-1.266-4.036-0.582-5.593
				c2.243-5.106,6.991-7.304,12.135-8.336c11.176-2.241,18.336,3.305,18.859,14.647c0.305,6.613,0.055,13.249,0.172,19.873
				c0.09,5.104,0.774,5.507,5.592,4.682C1674.822,961.969,1675.899,963.097,1677.116,963.77z M1659.832,943.658
				c-4.208,1.447-8.277,2.489-12.014,4.237c-3.374,1.579-5.368,6.673-4.53,10.136c0.739,3.052,2.432,5.316,5.793,5.809
				c2.959,0.433,10.228-2.919,10.586-5.635C1660.269,953.645,1659.832,948.95,1659.832,943.658z"/>
			<path style="fill:#FFFFFF;" d="M1042.745,967.827c-12.297-0.017-20.764-8.988-20.73-21.964
				c0.037-14.014,8.694-23.22,21.797-23.18c12.343,0.037,20.461,9.022,20.465,22.648
				C1064.281,958.892,1055.711,967.845,1042.745,967.827z M1055.76,947.788c-0.511-6.052-0.98-12.022-4.916-17.034
				c-2.881-3.669-6.743-4.903-11.247-4.234c-4.232,0.629-6.282,3.662-7.453,7.35c-0.65,2.046-1.052,4.209-1.256,6.349
				c-0.618,6.49,0.291,12.753,3.818,18.36c2.488,3.955,6.119,6.144,10.994,5.46c4.713-0.661,7.568-3.588,8.749-8.001
				C1055.164,953.361,1055.341,950.542,1055.76,947.788z"/>
			<path style="fill:#FFFFFF;" d="M544.099,967.827c-12.305-0.015-20.784-8.977-20.756-21.937
				c0.03-14.021,8.681-23.243,21.771-23.206c12.357,0.034,20.48,9.002,20.491,22.622
				C565.616,958.872,557.049,967.843,544.099,967.827z M557.156,947.161c-0.571-5.98-1.21-11.798-5.168-16.612
				c-4.864-5.915-13.627-5.662-17.261,0.429c-4.353,7.296-3.255,22.138,2.117,28.763c2.704,3.335,6.145,4.96,10.456,4.268
				c4.355-0.7,7.174-3.424,8.334-7.504C556.491,953.489,556.673,950.282,557.156,947.161z"/>
			<path style="fill:#FFFFFF;" d="M661.682,967.827c-12.313-0.013-20.802-8.966-20.779-21.914
				c0.025-14.028,8.67-23.263,21.748-23.229c12.369,0.032,20.496,8.985,20.514,22.599
				C683.183,958.856,674.622,967.841,661.682,967.827z M674.648,947.776c-0.511-6.053-0.984-12.021-4.924-17.032
				c-2.884-3.668-6.75-4.896-11.251-4.223c-4.231,0.633-6.277,3.67-7.445,7.359c-0.648,2.047-1.052,4.21-1.254,6.349
				c-0.614,6.49,0.295,12.753,3.826,18.359c2.491,3.954,6.126,6.137,11,5.449c4.711-0.666,7.564-3.597,8.741-8.011
				C674.053,953.349,674.23,950.531,674.648,947.776z"/>
			<path style="fill:#FFFFFF;" d="M1117.914,967.827c-12.236-0.03-20.66-9.067-20.598-22.095
				c0.067-13.967,8.761-23.105,21.929-23.049c12.272,0.053,20.371,9.126,20.333,22.78
				C1139.54,958.994,1130.953,967.859,1117.914,967.827z M1131.062,947.578c-0.502-5.93-1.029-11.758-4.809-16.69
				c-2.939-3.835-6.927-5.11-11.562-4.333c-4.199,0.704-6.176,3.818-7.312,7.513c-0.594,1.933-0.956,3.966-1.164,5.98
				c-0.669,6.491,0.232,12.745,3.701,18.383c2.538,4.125,6.272,6.369,11.292,5.579c4.687-0.738,7.486-3.738,8.597-8.173
				C1130.478,953.147,1130.659,950.335,1131.062,947.578z"/>
			<path style="fill:#FFFFFF;" d="M1485.148,967.827c-12.215-0.034-20.625-9.095-20.551-22.141
				c0.079-13.957,8.781-23.065,21.976-23.002c12.247,0.058,20.34,9.164,20.286,22.826
				C1506.806,959.031,1498.214,967.863,1485.148,967.827z M1498.342,947.786c-0.511-6.052-0.98-12.022-4.917-17.034
				c-2.882-3.669-6.745-4.902-11.247-4.232c-4.232,0.629-6.281,3.663-7.452,7.351c-0.65,2.046-1.052,4.209-1.256,6.349
				c-0.617,6.49,0.291,12.753,3.819,18.36c2.489,3.955,6.12,6.143,10.995,5.458c4.713-0.662,7.568-3.59,8.748-8.003
				C1497.747,953.359,1497.923,950.54,1498.342,947.786z"/>
			<path style="fill:#FFFFFF;" d="M1574.172,928.666c-1.842,0-3.516,0.169-5.126-0.075c-0.749-0.114-1.375-1.03-2.057-1.583
				c0.642-0.666,1.203-1.771,1.943-1.906c1.602-0.293,3.295-0.09,5.543-0.09c0-2.07-0.001-3.921,0-5.772
				c0.004-5.356,1.305-10.329,4.465-14.73c4.291-5.976,11.66-8.867,18.609-6.614c2.421,0.785,4.725,2.923,6.3,5.025
				c1.644,2.195,0.295,4.476-2.009,5.68c-2.178,1.137-4.083,0.288-5.136-1.816c-1.587-3.17-3.05-6.59-7.503-5.472
				c-4.267,1.071-5.467,4.891-5.984,8.544c-0.687,4.852-0.716,9.796-1.051,15.075c4.197,0,7.73,0,11.212,0
				c0.437,3.532,0.284,3.685-3.731,3.742c-2.267,0.032-4.534,0.006-7.016,0.006c0,10.572-0.043,20.721,0.024,30.869
				c0.023,3.425,2.308,4.363,5.363,4.649c1.159,0.109,2.218,1.263,3.323,1.941c-1.183,0.563-2.353,1.578-3.551,1.613
				c-5.879,0.169-11.767,0.137-17.649,0.021c-1.062-0.021-2.109-0.764-3.163-1.174c0.878-0.825,1.67-2.221,2.651-2.369
				c3.17-0.48,4.491-2.35,4.514-5.204C1574.22,949.114,1574.172,939.204,1574.172,928.666z"/>
			<path style="fill:#FFFFFF;" d="M1386.24,957.824c-5.412,12.354-23.58,12.454-30.785,4.78
				c-10.364-11.039-6.138-32.327,7.707-38.478c12.107-5.379,23.276,1.634,23.695,14.763c0.082,2.581-1.084,2.966-3.209,2.946
				c-7.042-0.064-14.084-0.024-21.127-0.023c-1.254,0-2.507,0-4.882,0c1.299,4.826,1.85,9.305,3.681,13.186
				c4.252,9.013,13.617,10.75,21.405,4.513C1383.711,958.72,1385.059,958.376,1386.24,957.824z M1377.743,937.925
				c0.54-7.03-2.026-11.055-7.032-11.5c-6.183-0.549-11.007,4.225-11.526,11.5C1365.286,937.925,1371.38,937.925,1377.743,937.925z"
				/>
			<path style="fill:#FFFFFF;" d="M726.025,941.812c1.309,4.84,1.867,9.322,3.703,13.206c4.256,9.003,13.617,10.723,21.412,4.478
				c0.982-0.787,2.333-1.117,3.699-1.229c-5.17,10.828-22.824,12.95-30.989,4.307c-10.406-11.016-6.123-32.323,7.731-38.458
				c12.082-5.35,23.289,1.709,23.676,14.795c0.077,2.603-1.133,2.94-3.235,2.922c-7.042-0.06-14.084-0.022-21.127-0.022
				C729.644,941.812,728.391,941.812,726.025,941.812z M745.973,937.873c0.95-6.302-1.507-10.64-6.274-11.383
				c-6.257-0.975-11.105,3.462-12.262,11.383C733.647,937.873,739.829,937.873,745.973,937.873z"/>
			<path style="fill:#FFFFFF;" d="M888.193,941.812c1.248,4.755,1.766,9.128,3.52,12.937c4.257,9.244,13.682,11.076,21.607,4.69
				c0.946-0.763,2.177-1.176,3.692-1.098c-2.139,4.603-5.714,7.529-10.357,8.681c-13.151,3.263-24.618-2.414-26.105-17.308
				c-0.853-8.548,1-16.221,7.745-22.164c5.688-5.012,12.268-6.05,19.365-3.985c6.131,1.784,11.27,10.618,9.597,16.531
				c-0.228,0.806-2.074,1.618-3.188,1.642c-7.039,0.149-14.083,0.076-21.125,0.076C891.696,941.812,890.447,941.812,888.193,941.812
				z M908.292,937.901c0.465-7.304-2.262-11.289-7.519-11.503c-6.066-0.247-10.757,4.648-10.983,11.503
				C895.884,937.901,901.974,937.901,908.292,937.901z"/>
			<path style="fill:#FFFFFF;" d="M1068.644,967.635c-0.774-2.364-0.223-3.584,2.311-3.537c3.72,0.068,4.919-2.304,4.93-5.451
				c0.055-16.827,0.043-33.653,0.025-50.48c-0.003-2.757-1.022-4.598-4.226-4.785c-0.917-0.054-1.768-1.232-2.649-1.895
				c0.812-0.571,1.554-1.466,2.448-1.659c4.095-0.884,8.232-1.572,12.522-2.362c0,3.062,0,5.937,0,8.812
				c0,16.572,0,33.144,0.001,49.715c0,0.255-0.003,0.51,0.007,0.765c0.245,6.262,0.79,6.855,7.32,7.627
				c0.067,0.975,0.138,2.019,0.222,3.249C1083.677,967.635,1076.188,967.635,1068.644,967.635z"/>
			<path style="fill:#FFFFFF;" d="M1772.625,967.825c-10.627,0-20.732,0.041-30.836-0.024c-3.192-0.021-3.715-1.23-1.786-4.084
				c5.141-7.608,10.413-15.13,15.513-22.765c2.871-4.299,5.505-8.757,8.615-13.735c-4.974,0-9.175-0.304-13.31,0.089
				c-3.804,0.361-5.216,3.579-6.565,6.732c-0.491,1.146-1.805,1.942-2.743,2.898c-0.322-1.192-0.98-2.406-0.902-3.572
				c0.237-3.513,0.76-7.008,1.131-10.16c10.741,0,21.194,0,32.987,0c-8.09,14.554-16.755,27.458-25.99,40.583
				c5.56,0,10.906,0.841,15.759-0.335c2.652-0.643,4.432-4.734,6.683-7.199c0.901-0.986,2.012-1.782,3.027-2.665
				c0.292,1.312,1,2.693,0.794,3.923C1774.44,960.877,1773.494,964.181,1772.625,967.825z"/>
			<path style="fill:#FFFFFF;" d="M486.566,966.597c-0.305-4.794-0.586-9.214-0.866-13.609c3.347-1.444,3.601,0.767,4.2,2.729
				c2.054,6.729,5.2,9.068,11.265,8.329c3.235-0.394,6.071-1.725,6.883-5.14c0.849-3.57-0.353-6.595-3.772-8.357
				c-3.285-1.693-6.714-3.115-9.97-4.86c-5.866-3.143-8.347-8.481-6.838-14.286c1.182-4.549,6.725-8.709,12.381-8.627
				c4.176,0.06,8.361,0.798,12.49,1.523c0.799,0.14,1.833,1.564,1.937,2.487c0.226,2.001,0.092,4.089-0.239,6.085
				c-0.171,1.031-1.08,1.941-1.655,2.906c-0.747-0.801-1.832-1.478-2.185-2.424c-1.732-4.648-4.639-7.052-8.947-6.94
				c-3.07,0.08-5.492,1.333-6.452,4.42c-0.978,3.149-0.137,5.964,2.722,7.625c2.852,1.657,5.998,2.81,9.007,4.2
				c6.916,3.194,9.939,7.388,9.599,13.292c-0.391,6.781-6.186,11.735-14.508,11.793
				C496.699,967.777,491.774,967.021,486.566,966.597z"/>
			<path style="fill:#FFFFFF;" d="M570.342,946.08c-0.014-10.444,5.48-19.133,14.33-22.308c5.258-1.886,10.596-1.644,15.72,0.54
				c3.205,1.366,5.553,3.684,5.907,7.395c0.3,3.135-1.446,4.848-4.345,5.244c-2.794,0.382-4.249-1.093-4.472-3.925
				c-0.217-2.758-0.835-5.493-3.989-6.307c-3.229-0.834-6.437-0.548-8.956,1.931c-1.253,1.234-2.557,2.648-3.19,4.236
				c-3.116,7.819-3.301,15.719,0.756,23.255c4.331,8.044,12.756,9.291,19.609,3.179c0.57-0.508,0.986-1.25,1.629-1.596
				c0.757-0.407,1.683-0.499,2.536-0.727c-0.072,0.881,0.142,1.929-0.261,2.618c-3.823,6.537-11.815,9.648-20.037,7.916
				C576.056,965.524,570.357,957.504,570.342,946.08z"/>
			<path style="fill:#FFFFFF;" d="M923.792,946.064c-0.011-10.44,5.494-19.134,14.345-22.299c5.258-1.88,10.599-1.638,15.721,0.552
				c3.203,1.37,5.548,3.69,5.893,7.405c0.292,3.14-1.465,4.841-4.361,5.23c-2.8,0.376-4.238-1.118-4.459-3.942
				c-0.216-2.761-0.846-5.489-4.001-6.297c-3.231-0.827-6.438-0.538-8.953,1.946c-1.251,1.236-2.553,2.651-3.184,4.24
				c-3.108,7.821-3.293,15.721,0.769,23.254c4.331,8.031,12.768,9.27,19.615,3.155c0.569-0.508,0.983-1.255,1.627-1.598
				c0.756-0.403,1.685-0.485,2.539-0.707c-0.079,0.883,0.125,1.93-0.281,2.622c-3.839,6.535-11.828,9.636-20.044,7.898
				C929.493,965.511,923.804,957.491,923.792,946.064z"/>
			<path style="fill:#FFFFFF;" d="M1443.592,922.258c4.994,0.36,9.602,1.195,13.002,5.077c3.131,3.575,2.324,8.217-1.551,9.358
				c-2.753,0.81-4.858,0.201-5.314-3.057c-0.431-3.084-0.758-6.283-4.619-7.055c-4.309-0.861-7.766,0.552-10.38,4.124
				c-5.196,7.099-4.422,21.864,1.54,28.368c4.465,4.871,10.741,5.416,16.198,1.366c0.918-0.681,1.628-1.666,2.594-2.248
				c0.91-0.549,2.031-0.752,3.059-1.108c-0.209,0.998-0.144,2.178-0.67,2.968c-6.273,9.418-20.89,10.738-28.887,2.675
				c-11.072-11.163-6.79-32.952,7.678-38.674C1438.563,923.133,1441.135,922.84,1443.592,922.258z"/>
			<path style="fill:#FFFFFF;" d="M861.673,927.115c0,10.679-0.204,20.849,0.094,31.005c0.132,4.493,3.044,5.338,8.211,3.112
				c1.321-0.569,2.861-0.636,4.3-0.934c-0.914,1.351-1.545,3.133-2.806,3.959c-2.201,1.443-4.692,2.7-7.238,3.319
				c-6.183,1.504-10.099-1.128-10.668-7.486c-0.52-5.818-0.283-11.706-0.329-17.563c-0.039-4.951-0.008-9.903-0.008-15.119
				c-1.36-0.1-2.524,0.017-3.538-0.318c-0.979-0.323-1.803-1.113-2.695-1.697c0.927-0.647,1.777-1.508,2.805-1.874
				c0.885-0.315,1.974-0.065,3.428-0.065c0-2.53,0.313-4.839-0.069-7.027c-0.678-3.885,0.838-5.94,4.548-6.778
				c1.074-0.243,2.085-0.764,3.619-1.344c0,5.202,0,9.931,0,15.146c3.649,0,6.935-0.097,10.209,0.064
				c0.887,0.044,1.735,0.87,2.601,1.337c-0.843,0.754-1.637,2.084-2.537,2.16C868.432,927.278,865.229,927.115,861.673,927.115z"/>
			<path style="fill:#FFFFFF;" d="M1194.624,966.572c0.875-0.621,1.686-1.638,2.637-1.791c3.499-0.561,4.653-2.743,4.657-5.91
				c0.009-8.03,0.023-16.06-0.001-24.089c-0.008-2.805-0.879-4.957-4.122-5.503c-0.735-0.124-1.316-1.15-1.968-1.76
				c0.48-0.49,0.883-1.274,1.453-1.422c4.419-1.152,8.87-2.181,13.757-3.355c0,6.385-0.001,12.583,0,18.781
				c0.001,5.736,0.062,11.472-0.016,17.207c-0.047,3.412,1.109,5.594,4.823,6.098c0.881,0.12,1.621,1.27,2.426,1.946
				c-0.212,0.297-0.425,0.595-0.637,0.892c-7.392,0-14.785,0-22.177,0C1195.179,967.301,1194.902,966.937,1194.624,966.572z"/>
			<path style="fill:#FFFFFF;" d="M1622.884,923.468c0,3.939-0.006,7.723,0.001,11.506c0.016,7.638,0.063,15.276,0.048,22.913
				c-0.007,3.649,1.03,6.221,5.349,6.323c0.733,0.017,1.437,1.243,2.154,1.91c-0.816,0.568-1.621,1.61-2.45,1.628
				c-6.133,0.14-12.272,0.137-18.406,0.003c-0.826-0.018-1.63-1.023-2.444-1.571c0.773-0.679,1.51-1.892,2.326-1.946
				c4.053-0.272,5.113-2.694,5.106-6.195c-0.015-7.636-0.005-15.273,0.062-22.91c0.028-3.208-0.911-5.432-4.565-5.828
				c-0.709-0.077-1.386-1.14-1.873-1.881c-0.081-0.123,0.823-1.255,1.388-1.374C1613.925,925.125,1618.297,924.339,1622.884,923.468
				z"/>
			<path style="fill:#FFFFFF;" d="M626.306,923.461c0,10.211-0.006,19.993,0.005,29.775c0.002,1.908,0.078,3.817,0.113,5.725
				c0.057,3.161,1.465,4.933,4.821,5.218c0.924,0.078,1.757,1.219,2.632,1.873c-0.926,0.592-1.839,1.671-2.78,1.695
				c-6.004,0.156-12.016,0.14-18.022,0.009c-0.846-0.019-1.672-0.979-2.507-1.503c0.746-0.699,1.458-1.956,2.245-2.005
				c4.306-0.265,5.201-2.917,5.187-6.518c-0.029-7.509-0.002-15.018,0.056-22.527c0.024-3.16-0.798-5.482-4.495-5.884
				c-0.732-0.08-1.355-1.157-2.028-1.775c0.59-0.534,1.106-1.402,1.781-1.548C617.529,925.08,621.779,924.324,626.306,923.461z"/>
			<path style="fill:#FFFFFF;" d="M1202.081,916.712c1.324-3.418,2.64-6.84,3.974-10.254c2.612-6.684,3.579-7.25,11.339-6.424
				c-0.299,0.835-0.415,1.695-0.862,2.321c-3.393,4.745-6.773,9.504-10.357,14.104c-0.68,0.873-2.254,1.055-3.415,1.555
				C1202.534,917.581,1202.308,917.147,1202.081,916.712z"/>
			<path style="fill:#FFFFFF;" d="M1618.494,912.731c-2.684-0.006-5.044-2.437-4.99-5.139c0.052-2.592,2.58-4.881,5.36-4.789
				c3.156,0.104,4.448,2.192,4.724,4.917C1623.85,910.3,1621.2,912.737,1618.494,912.731z"/>
			<path style="fill:#FFFFFF;" d="M623.029,902.795c2.267,0.105,3.653,2.078,3.982,4.817c0.309,2.571-2.279,5.069-4.985,5.119
				c-2.677,0.049-5.101-2.338-5.109-5.032C616.908,905.119,619.403,902.793,623.029,902.795z"/>
		</g>
	</g>
</g>
</svg>
